<svg width="47" height="56" viewBox="0 0 47 56" fill="none" xmlns="http://www.w3.org/2000/svg">
<path fill-rule="evenodd" clip-rule="evenodd" d="M16.9186 42.6841C17.8769 41.3983 17.6214 39.5775 16.3357 38.6192C15.3853 37.9084 10.8333 36.5828 9.2441 38.3557C5.9938 41.9893 3.17728 49.7591 0.821411 55.1177H12.3043L16.9186 42.6841Z" fill="#A8DEE6"/>
<path fill-rule="evenodd" clip-rule="evenodd" d="M31.2855 42.1332C30.3192 40.8474 30.5827 39.0266 31.8685 38.0683C32.8188 37.3575 37.3708 36.0399 38.9521 37.8048C42.7055 41.9974 44.2382 50.0147 46.1788 55.1178H28.9545L31.2855 42.1332Z" fill="#A8DEE6"/>
<path fill-rule="evenodd" clip-rule="evenodd" d="M39.0158 45.6948C38.8641 47.7073 38.7443 49.7198 38.6565 51.7402C29.201 56.1804 19.7456 56.1804 10.2822 51.7402C10.1784 50.159 10.0187 48.5698 9.81906 46.9726L11.4642 39.5137C11.1288 39.1703 39.0158 24.7236 39.0158 45.6948Z" fill="#A8DEE6"/>
<path fill-rule="evenodd" clip-rule="evenodd" d="M16.6071 35.2252L22.4768 48.7854H22.381V54.9905C18.0457 55.1177 13.4525 55.1177 10.0077 55.1177C11.3893 53.9517 11.1926 42.2448 9.80304 37.7088C9.83498 37.6848 9.87493 37.6609 9.91486 37.6449L16.6071 35.2252ZM26.3101 48.8253L32.9225 34.5144L38.6405 37.621L38.9679 37.8046C37.6422 42.5403 35.3473 54.1555 36.9924 55.2176C32.3993 55.2256 30.6768 55.2176 26.3101 55.2176V48.8253Z" fill="#FF9A0A"/>
<path fill-rule="evenodd" clip-rule="evenodd" d="M24.6811 37.7008L18.1087 43.7462L15.8886 34.9297L24.6811 37.7008Z" fill="#EFF9FB"/>
<path fill-rule="evenodd" clip-rule="evenodd" d="M24.6811 37.7008L31.2615 43.7462L33.4816 34.9297L24.6811 37.7008Z" fill="#EFF9FB"/>
<path fill-rule="evenodd" clip-rule="evenodd" d="M36.0211 28.2614C36.3964 23.366 38.0575 18.239 36.8596 13.6949C34.0805 7.21033 20.9435 4.1437 14.6346 5.29369C10.6895 11.93 12.3187 20.1237 13.0454 27.6864L36.0211 28.2614Z" fill="#592D0D"/>
<path fill-rule="evenodd" clip-rule="evenodd" d="M18.2123 14.933C16.128 14.5257 14.1315 16.6579 13.7641 18.7503C13.4207 20.6669 13.1812 22.6315 13.0933 24.604C13.0374 24.596 12.9815 24.588 12.9256 24.588C12.143 24.588 11.5041 25.4904 11.5041 26.6005C11.5041 27.7105 12.143 28.613 12.9256 28.613C12.9975 28.613 13.0694 28.605 13.1412 28.589C13.245 30.0105 13.4447 30.282 13.7641 31.6556C14.2513 33.724 15.7766 36.3674 18.7873 37.0781C20.2487 37.4295 22.357 37.6212 24.4813 37.6451C26.5976 37.6291 28.7059 37.4295 30.1673 37.0781C33.1781 36.3674 34.7114 33.724 35.1905 31.6556C35.51 30.282 35.7096 30.0105 35.8134 28.589C35.8853 28.605 35.9572 28.613 36.0291 28.613C36.8117 28.613 37.4506 27.7105 37.4506 26.6005C37.4506 25.4904 36.8117 24.588 36.0291 24.588C35.9732 24.588 35.9173 24.596 35.8614 24.604C35.7735 22.6315 35.5339 20.6669 35.1905 18.7503C34.8152 16.6579 32.8267 14.5496 30.7344 14.933C26.2462 15.7555 22.6925 15.8114 18.2123 14.933Z" fill="#F2C196"/>
<path fill-rule="evenodd" clip-rule="evenodd" d="M33.4017 9.69409C28.2747 6.00456 19.4661 4.42334 14.6426 5.30179C14.6426 8.10488 20.2488 10.3729 27.1647 10.3729C29.4327 10.3649 31.5649 10.1173 33.4017 9.69409Z" fill="#7E3E14"/>
<path fill-rule="evenodd" clip-rule="evenodd" d="M24.5852 1.02111C33.3618 0.933262 38.1933 7.71338 37.4826 14.9327C32.3795 18.6781 16.5593 18.8698 11.6958 14.9327C11.2566 7.88108 15.8166 1.10097 24.5852 1.02111Z" fill="#FF9A0A"/>
<path fill-rule="evenodd" clip-rule="evenodd" d="M23.012 0.773696C24.0262 0.598004 25.0803 0.590018 26.1664 0.773696C26.4699 0.821612 26.7015 1.09314 26.7254 1.48445L27.3643 13.3596C27.3883 13.7509 26.4699 14.0704 26.1664 14.0704H23.012C22.7085 14.0704 21.7901 13.7509 21.8141 13.3596L22.453 1.48445C22.4769 1.09314 22.7085 0.829598 23.012 0.773696Z" fill="#CF850E"/>
<path fill-rule="evenodd" clip-rule="evenodd" d="M23.2594 0.13478C24.1139 -0.0409116 25.0084 -0.0488975 25.9268 0.13478C26.1823 0.182696 26.3979 0.454219 26.3979 0.845533V13.3596C26.3979 13.7509 26.1823 14.0703 25.9268 14.0703H23.2594C23.0039 14.0703 22.7883 13.7509 22.7883 13.3596V0.845533C22.7883 0.454219 22.9959 0.182696 23.2594 0.13478Z" fill="#E26600"/>
<path fill-rule="evenodd" clip-rule="evenodd" d="M37.4824 14.9249C32.3075 18.6144 16.5591 18.83 11.6957 14.9249C18.2841 12.01 30.9419 12.1378 37.4824 14.9249Z" fill="#CF850E"/>
<path fill-rule="evenodd" clip-rule="evenodd" d="M37.0833 15.1965C32.8507 18.5346 17.1263 18.7582 12.0312 15.1805C18.4919 13.2639 30.1434 13.2798 37.0833 15.1965Z" fill="#E26600"/>
<path fill-rule="evenodd" clip-rule="evenodd" d="M11.6957 14.9248C11.4402 15.4758 11.0169 15.8272 10.4659 16.2345L10.6575 16.3862C11.7915 16.6897 13.1172 16.0029 14.7943 16.498L11.6957 14.9248Z" fill="#E26600"/>
<path fill-rule="evenodd" clip-rule="evenodd" d="M37.4825 14.9248C37.7381 15.4758 38.1614 15.8272 38.7124 16.2345L38.5207 16.3862C37.3867 16.6897 36.093 16.0189 34.392 16.498L37.4825 14.9248Z" fill="#E26600"/>
</svg>
