<svg width="54" height="55" viewBox="0 0 54 55" fill="none" xmlns="http://www.w3.org/2000/svg">
<path fill-rule="evenodd" clip-rule="evenodd" d="M39.9147 13.8523L30.2045 20.2132C30.2045 26.5658 30.2045 27.3756 30.2045 32.8677H38.1262H39.9147H41.7031H49.6248V31.7709V20.2132L39.9147 13.8523Z" fill="#8DD7E3"/>
<path fill-rule="evenodd" clip-rule="evenodd" d="M39.9146 16.5603L47.3639 21.4365V30.6067H32.4738C32.4738 27.5528 32.4738 24.4904 32.4738 21.4365L39.9146 16.5603Z" fill="#344453"/>
<path d="M45.2379 19.4287H44.3099V26.144H45.2379V19.4287Z" fill="#8DD7E3"/>
<path fill-rule="evenodd" clip-rule="evenodd" d="M13.5258 13.8523L23.236 20.2132C23.236 26.5658 23.236 27.3756 23.236 32.8677H15.3143H13.5258H11.7373H3.81564V31.7709V20.2132L13.5258 13.8523Z" fill="#8DD7E3"/>
<path fill-rule="evenodd" clip-rule="evenodd" d="M13.5261 16.5603L6.07687 21.4365V30.6067H20.9669C20.9669 27.5528 20.9669 24.4904 20.9669 21.4365L13.5261 16.5603Z" fill="#344453"/>
<path d="M9.1389 19.4287H8.21091V26.144H9.1389V19.4287Z" fill="#8DD7E3"/>
<path fill-rule="evenodd" clip-rule="evenodd" d="M26.6191 0L36.3293 6.36095C36.3293 12.7135 36.3293 13.5233 36.3293 19.0154H28.4076H26.6191H24.8306H16.909V17.9187V6.35252L26.6191 0Z" fill="#8DD7E3"/>
<path fill-rule="evenodd" clip-rule="evenodd" d="M26.6189 2.69971L19.1697 7.57588V16.7461H34.0597C34.0597 13.6922 34.0597 10.6298 34.0597 7.57588L26.6189 2.69971Z" fill="#20354A"/>
<path d="M22.2322 5.57617H21.3042V12.2915H22.2322V5.57617Z" fill="#8DD7E3"/>
<path d="M31.9422 5.57617H31.0143V12.2915H31.9422V5.57617Z" fill="#8DD7E3"/>
<path d="M37.8056 14.9998H26.6191V52.5412H37.8056V14.9998Z" fill="#20354A"/>
<path d="M13.3235 27.0298H2.13696V53.6378H13.3235V27.0298Z" fill="#344453"/>
<path fill-rule="evenodd" clip-rule="evenodd" d="M0.0278931 17.9946L13.3235 26.7009V28.9955H2.48285V30.4972H13.3235V32.0073H2.48285V33.5089H13.3235V35.0106H2.48285V36.5207H13.3235V38.0224H2.48285V39.524H13.3235V41.0257H2.48285V42.5358H13.3235V44.0374H2.48285V45.5391H13.3235V47.0407H2.48285V48.5508H13.3235V50.0525H2.48285V51.5541H13.3235V54.7177H0.0278931V17.9946Z" fill="#8DD7E3"/>
<path d="M26.619 27.0298H15.4325V53.3594H26.619V27.0298Z" fill="#20354A"/>
<path fill-rule="evenodd" clip-rule="evenodd" d="M13.3234 17.9946L21.1017 23.0901V27.5023H26.619V29.004H15.7784V30.5056H26.619V32.0073H15.7784V33.5089H26.619V35.0106H15.7784V36.5123H26.619V38.0139H15.7784V39.5156H26.619V41.0172H15.7784V42.5189H26.619V44.0205H15.7784V45.5222H26.619V47.0239H15.7784V48.5255H26.619V50.0525H15.7784V51.5541H26.619V54.7177H13.3234V17.9946ZM26.619 27.5023V29.004H37.4596V30.5056H26.619V32.0073H37.4596V33.5089H26.619V35.0106H37.4596V36.5123H26.619V38.0139H37.4596V39.5156H26.619V41.0172H37.4596V42.5189H26.619V44.0205H37.4596V45.5222H26.619V47.0239H37.4596V48.5255H26.619V50.0525H37.4596V51.5541H26.619V54.7177H39.9146V27.5023H26.619Z" fill="#A8DEE6"/>
<path d="M26.619 14.9998H15.4325V32.0073H26.619V14.9998Z" fill="#20354A"/>
<path d="M51.1011 27.0298H39.9146V53.7306H51.1011V27.0298Z" fill="#344453"/>
<path fill-rule="evenodd" clip-rule="evenodd" d="M53.2187 17.9946L39.9146 26.7009V28.9955H50.7637V30.4972H39.9146V32.0073H50.7637V33.5089H39.9146V35.0106H50.7637V36.5207H39.9146V38.0224H50.7637V39.524H39.9146V41.0257H50.7637V42.5358H39.9146V44.0374H50.7637V45.5391H39.9146V47.0407H50.7637V48.5508H39.9146V50.0525H50.7637V51.5541H39.9146V54.7177H53.2187V17.9946Z" fill="#8DD7E3"/>
<path d="M27.083 1.26538H26.155V14.9912H27.083V1.26538Z" fill="#8DD7E3"/>
<path fill-rule="evenodd" clip-rule="evenodd" d="M39.9146 5.96436L26.619 14.6706V16.9653H37.4596V18.4669H26.619V19.9686H37.4596V21.4702H26.619V22.9719H37.4596V24.4735H26.619V25.9752H37.4596V27.4769H26.619V28.9785H37.4596V30.4802H26.619V31.9818H37.4596H39.9146V5.96436ZM13.3234 5.96436L26.619 14.6706V16.9653H15.7784V18.4669H26.619V19.9686H15.7784V21.4702H26.619V22.9719H15.7784V24.4735H26.619V25.9752H15.7784V27.4769H26.619V28.9785H15.7784V30.4802H26.619V31.9818H15.7784H13.3234V5.96436Z" fill="#A8DEE6"/>
</svg>
