<svg width="24" height="24" viewBox="0 0 24 24" fill="none" xmlns="http://www.w3.org/2000/svg">
<path d="M12 24C18.6274 24 24 18.6274 24 12C24 5.3726 18.6274 0 12 0C5.3726 0 0 5.3726 0 12C0 18.6274 5.3726 24 12 24Z" fill="url(#paint0_linear_3_971)"/>
<path d="M4.46906 12.5869C5.87185 11.8142 7.43775 11.1693 8.90085 10.5211C11.418 9.45944 13.9451 8.41614 16.4977 7.44484C16.9943 7.27934 17.8867 7.11749 17.9742 7.85349C17.9263 8.89529 17.7292 9.93099 17.594 10.9667C17.2508 13.2443 16.8542 15.5141 16.4675 17.7842C16.3342 18.5403 15.387 18.9318 14.7809 18.4479C13.3243 17.464 11.8565 16.4897 10.4185 15.483C9.9474 15.0043 10.3842 14.317 10.8049 13.9752C12.0046 12.7929 13.2769 11.7884 14.4139 10.545C14.7206 9.80434 13.8144 10.4285 13.5155 10.6198C11.8731 11.7516 10.2709 12.9525 8.5393 13.9472C7.6548 14.4341 6.6239 14.018 5.7398 13.7463C4.94709 13.4181 3.78548 13.0874 4.46898 12.587L4.46906 12.5869Z" fill="white"/>
<defs>
<linearGradient id="paint0_linear_3_971" x1="9.0014" y1="1.0008" x2="3.0014" y2="15" gradientUnits="userSpaceOnUse">
<stop stop-color="#37AEE2"/>
<stop offset="1" stop-color="#1E96C8"/>
</linearGradient>
</defs>
</svg>
