<svg width="610" height="196" viewBox="0 0 610 196" fill="none" xmlns="http://www.w3.org/2000/svg">
<path d="M-9 44H372.159L597 189.5" stroke="#E0E0E0" stroke-width="8"/>
<path d="M528.438 132.604L528.579 127.383L512.82 113.988L421.927 55.7771L387.904 77.0154L374.508 84.5516L361.702 95.2771L357 103.002L365.364 109.05L395.772 128.02L415.949 127.855C415.949 127.855 416.847 128.233 418.336 128.847L406.073 130.029L408.578 131.659L422.352 130.477C429.275 133.194 439.978 137.092 445.176 137.399C449.523 137.659 456.328 137.706 461.62 137.683L467.503 150.086L474.143 154.645L471.922 156.063L472.796 163.221L484.846 171.442L490.327 170.19H504.078L509.512 171.442L520.806 172.033L525.673 153.96L506.228 141.746L512.607 140.494L528.438 132.604ZM480.002 150.865L472.347 146.211L468.236 137.588C468.992 137.588 469.417 137.565 469.417 137.565L477.214 133.738L481.254 133.997L497.274 139.785L480.002 150.865Z" fill="#BBBBBB"/>
<path d="M518.892 102.223L521.279 91.2138L517.688 78.7637L520.097 77.3699L537.865 91.828L545.875 99.6949L547.245 104.325L546.442 106.144L549.489 121.169L550.293 122.28V123.532L552.23 128.965L553.766 129.84L555.184 131.682L553.506 133.738L551.12 135.131L548.45 129.414L547.954 129.438L547.032 125.445L542.968 104.136L541.244 102.128L540.937 99.8367L539.401 97.7813L524.398 85.2841L526.477 93.8125L522.862 105.743L520.877 105.601L519.294 103.971L518.892 102.223Z" fill="#423D3D"/>
<path d="M544.055 107.538L546.442 106.144L547.245 104.325L544.859 105.719L544.055 107.538Z" fill="#1E1A1A"/>
<path d="M543.488 101.089L545.875 99.6947L547.245 104.325L544.859 105.719L543.488 101.089Z" fill="#312C2C"/>
<path d="M544.055 107.538L546.442 106.144L549.49 121.169L550.293 122.28V123.532L551.592 128.587L549.844 130.336L547.907 124.926V123.65L547.103 122.54L544.055 107.538Z" fill="#382B2D"/>
<path d="M545.355 106.286C545.614 106.333 545.993 106.215 546.182 106.003C546.371 105.79 546.3 105.577 546.016 105.53C545.756 105.483 545.378 105.601 545.189 105.814C545.024 106.026 545.095 106.239 545.355 106.286Z" fill="#898989"/>
<path d="M550.482 121.146L550.789 121.028L552.821 127.241C552.726 127.288 552.608 127.312 552.49 127.312L550.482 121.146Z" fill="#939393"/>
<path d="M552.821 127.241L550.789 121.028L551.19 120.909L551.356 120.862L553.293 126.721V126.745C553.317 126.839 553.317 126.934 553.222 127.028L553.199 127.052C553.081 127.123 552.962 127.194 552.821 127.241Z" fill="#818181"/>
<path d="M550.175 121.24L550.482 121.146L552.514 127.312C552.466 127.312 552.419 127.312 552.348 127.312C552.206 127.265 552.112 127.217 552.112 127.099L550.175 121.24Z" fill="#898989"/>
<path d="M550.175 121.24L550.482 121.146L552.514 127.312C552.466 127.312 552.419 127.312 552.348 127.312C552.206 127.265 552.112 127.217 552.112 127.099L550.175 121.24Z" fill="#818181"/>
<path d="M550.789 121.028L551.19 120.91L553.199 127.005L553.175 127.028C553.081 127.123 552.962 127.194 552.821 127.241L550.789 121.028Z" fill="#898989"/>
<path d="M550.411 121.429C550.67 121.477 551.049 121.358 551.238 121.146C551.427 120.933 551.356 120.721 551.072 120.673C550.812 120.626 550.434 120.744 550.245 120.957C550.08 121.146 550.151 121.358 550.411 121.429Z" fill="#A7A7A7"/>
<path d="M547.269 112.098L547.765 111.932L551.072 121.996C550.907 122.067 550.718 122.114 550.553 122.091L547.269 112.098Z" fill="#939393"/>
<path d="M551.072 121.996L547.765 111.932L548.403 111.72L548.662 111.625L551.781 121.122C551.829 121.264 551.781 121.429 551.64 121.595V121.618C551.498 121.807 551.309 121.925 551.072 121.996Z" fill="#818181"/>
<path d="M546.772 112.263L547.268 112.098L550.553 122.091C550.458 122.091 550.387 122.091 550.293 122.067C550.056 122.02 549.915 121.902 549.891 121.76L546.772 112.263Z" fill="#818181"/>
<path d="M546.772 112.263L547.268 112.098L550.553 122.091C550.458 122.091 550.387 122.091 550.293 122.067C550.056 122.02 549.915 121.902 549.891 121.76L546.772 112.263Z" fill="#818181"/>
<path d="M547.765 111.932L548.403 111.72L551.663 121.595V121.618C551.521 121.784 551.309 121.902 551.096 121.973L547.765 111.932Z" fill="#898989"/>
<path d="M547.174 112.57C547.623 112.664 548.213 112.452 548.521 112.121C548.828 111.79 548.71 111.436 548.261 111.342C547.812 111.247 547.221 111.46 546.914 111.79C546.63 112.121 546.725 112.476 547.174 112.57Z" fill="#A7A7A7"/>
<path d="M545.426 106.026L545.733 105.908L547.788 112.121C547.67 112.169 547.576 112.192 547.457 112.192L545.426 106.026Z" fill="#939393"/>
<path d="M547.788 112.121L545.733 105.908L546.134 105.79L546.276 105.743L548.214 111.602C548.237 111.696 548.214 111.791 548.143 111.885C548.048 111.98 547.906 112.074 547.788 112.121Z" fill="#818181"/>
<path d="M545.118 106.121L545.426 106.026L547.457 112.192C547.41 112.192 547.363 112.192 547.292 112.169C547.15 112.145 547.056 112.074 547.056 111.98L545.118 106.121Z" fill="#898989"/>
<path d="M545.118 106.121L545.426 106.026L547.457 112.192C547.41 112.192 547.363 112.192 547.292 112.169C547.15 112.145 547.056 112.074 547.056 111.98L545.118 106.121Z" fill="#818181"/>
<path d="M545.733 105.908L546.134 105.79L548.143 111.885C548.048 111.98 547.93 112.074 547.788 112.121L545.733 105.908Z" fill="#898989"/>
<path d="M520.476 107.113L522.862 105.743L526.477 93.8124L524.445 85.4257L522.011 86.6542L524.09 95.1826L520.476 107.113Z" fill="#1E1A1A"/>
<path d="M552.23 128.966L553.908 125.375L557.972 123.367L559.058 125.209L555.184 127.524L553.459 131.234L552.23 128.966Z" fill="#423D3D"/>
<path d="M516.506 103.617L518.892 92.584L517.687 84.2209V78.7637L535.455 93.1982L543.488 101.089L544.859 105.719L544.055 107.538L547.103 122.54L547.906 123.65V124.926L549.844 130.336L551.38 131.233L552.797 133.053L551.12 135.131L548.332 131.493L548.119 130.926L547.623 130.95L544.646 126.839L540.582 105.53L538.857 103.522L538.55 101.207L537.014 99.1515L522.011 86.6542L524.09 95.1826L520.475 107.113L518.491 106.971L516.908 105.365L516.506 103.617Z" fill="#362326"/>
<path d="M549.844 130.336L551.521 126.745L555.562 124.737L556.672 126.603L552.797 128.918L551.072 132.627L549.844 130.336Z" fill="#291E1F"/>
<path d="M542.047 104.514C541.905 104.514 541.763 104.467 541.598 104.372C541.102 104.089 540.7 103.404 540.7 102.813C540.7 102.364 540.936 102.081 541.291 102.081C541.433 102.081 541.574 102.128 541.74 102.223C542.236 102.506 542.638 103.191 542.638 103.782C542.638 104.231 542.401 104.514 542.047 104.514Z" fill="#1C1818"/>
<path d="M542.425 103.853C542.425 104.373 542.047 104.585 541.598 104.325C541.149 104.065 540.771 103.428 540.771 102.884C540.771 102.364 541.149 102.152 541.598 102.412C542.047 102.672 542.425 103.333 542.425 103.853Z" fill="#1C1818"/>
<path d="M434.52 27.6878L432.583 42.0514L500.18 97.5923L507.339 91.45L463.7 42.264L438.537 27.7351L434.52 27.6878Z" fill="#434C5F"/>
<path d="M489.004 63.4552L488.177 65.605L487.752 88.4971L503.346 99.9077L514.805 105.554L526.193 110.68L527.327 108.861L518.821 90.6233L489.004 63.4552Z" fill="#434C5F"/>
<path d="M445.767 39.122L502.188 94.0486C502.188 94.0486 509.56 102.908 508.52 110.231C507.457 117.555 502.826 118.264 497.392 115.122C491.957 111.98 439.978 81.9766 439.978 81.9766C439.978 81.9766 422.589 70.2353 422.589 48.808C422.565 29.6013 437.45 31.7984 445.767 39.122Z" fill="#434C5F"/>
<path d="M533.447 110.42V105.506L531.533 104.821L530.824 90.2451L530.257 85.7801L487.728 55.3992L486.382 55.2102L484.444 58.8247L484.87 67.4712C484.87 67.4712 501.243 75.9997 504.196 82.709C507.15 89.4183 509.04 98.8208 509.04 98.8208L515.585 103.475L533.447 110.42Z" fill="#434C5F"/>
<path d="M438.324 22.4904L437.19 25.3962L448.508 31.9402L471.78 56.7694L477.191 64.2583L481.373 64.3056L469.441 41.8152L448.082 27.5224L441.845 23.3409L438.324 22.4904Z" fill="#434C5F"/>
<path d="M452.879 4.81934L450.28 27.5933L449.216 26.979L448.082 27.546C448.082 27.546 467.693 42.5711 469.937 46.3747C472.182 50.1782 477.167 64.2583 477.167 64.2583L481.042 69.2431L488.012 73.2592L488.154 65.6285L488.579 56.7458L484.35 26.7428L452.879 4.81934Z" fill="#434C5F"/>
<path d="M450.09 2.5987L450.421 0.354388L451.366 0L474.095 15.663L487.752 26.7429L487.161 28.8218L485.2 28.1131L452.784 5.48088L450.09 2.5987Z" fill="#434C5F"/>
<path d="M454.674 8.03229L452.146 27.7114L467.504 38.6023L468.023 16.9387L454.674 8.03229Z" fill="#7E7E7E"/>
<path d="M494.911 72.8577L492.265 71.3221V80.2286L494.911 81.7641V72.8577Z" fill="#434C5F"/>
<path d="M428.543 24.1678L430.386 26.5539L435.229 29.3652C435.229 29.3652 438.23 28.6092 444.396 31.704C450.563 34.7751 467.386 53.9818 467.386 53.9818L479.719 69.3849L487.421 74.1334V72.8813L479.79 67.5894L467.433 49.7766L445.979 28.2548L430.362 23.1756L428.519 22.963V24.1678H428.543Z" fill="#434C5F"/>
<path d="M517.616 105.672C518.68 98.3484 511.284 89.4892 511.284 89.4892L454.863 34.5625C449.878 30.192 442.553 27.6406 437.474 30.4283L449.358 23.5772C449.618 23.4118 449.878 23.2465 450.161 23.1283L450.185 23.1047C455.241 20.5533 462.4 23.0811 467.314 27.3807L523.712 82.3074C523.712 82.3074 531.084 91.1665 530.044 98.4901C529.619 101.49 528.579 103.38 527.138 104.349L527.114 104.373C526.973 104.467 526.807 104.562 526.665 104.632L514.71 111.531C516.151 110.539 517.191 108.649 517.616 105.672Z" fill="#4F1F26"/>
<path d="M480.333 49.1387L487.279 48.2882L486.665 47.107L479.624 48.0047L474.45 53.6273L475.348 54.5014L480.333 49.1387Z" fill="#5D3138"/>
<path d="M474.852 44.1303L481.798 43.2562L481.184 42.0986L474.143 42.9963L469.11 48.4299L470.032 49.3277L474.852 44.1303Z" fill="#5D3138"/>
<path d="M485.791 54.1708L492.761 53.2966L492.123 52.1154L485.106 53.0368L479.766 58.8011L480.664 59.6752L485.791 54.1708Z" fill="#5D3138"/>
<path d="M469.37 39.1219L476.316 38.2478L475.702 37.0666L468.685 37.9879L463.794 43.2562L464.692 44.1303L469.37 39.1219Z" fill="#5D3138"/>
<path d="M491.272 59.179L498.219 58.3049L497.604 57.1237L490.587 58.045L485.082 63.9747L485.98 64.8488L491.272 59.179Z" fill="#5D3138"/>
<path d="M458.407 29.0817L465.353 28.2076L464.739 27.0264L457.722 27.9477L452.973 33.0742C453.327 33.3104 453.658 33.5703 453.989 33.8302L458.407 29.0817Z" fill="#5D3138"/>
<path d="M463.888 34.1136L470.835 33.2395L470.22 32.0583L463.203 32.9796L458.478 38.0825L459.376 38.9566L463.888 34.1136Z" fill="#5D3138"/>
<path d="M452.949 24.0733L459.896 23.1992L459.777 22.9629C458.903 22.6558 458.029 22.4432 457.155 22.3015L452.264 22.9393L446.026 29.6959L446.074 29.7668C446.499 29.8849 446.901 30.003 447.326 30.1448L452.949 24.0733Z" fill="#5D3138"/>
<path d="M517.805 84.9769L524.752 84.1028L524.137 82.9216L517.12 83.8429L511.592 89.8199C511.781 90.0561 512.04 90.4105 512.348 90.8357L517.805 84.9769Z" fill="#5D3138"/>
<path d="M496.754 64.1873L503.7 63.3132L503.157 62.2974L503.015 62.1556L496.069 63.0534L490.398 69.1721L491.32 70.0462L496.754 64.1873Z" fill="#5D3138"/>
<path d="M529.241 101.561L529.052 101.183L522.035 102.104L517.309 107.207C517.049 108.223 516.718 109.097 516.293 109.806L516.411 110.042L522.72 103.238L528.792 102.482C528.957 102.175 529.123 101.892 529.241 101.561Z" fill="#5D3138"/>
<path d="M529.997 95.1589L523.287 96.0331L517.545 102.246C517.64 102.813 517.687 103.357 517.687 103.924L523.972 97.167L530.091 96.411C530.091 95.9858 530.044 95.5606 529.997 95.1589Z" fill="#5D3138"/>
<path d="M521.964 91.1192L528.556 90.2923C528.39 89.8907 528.201 89.4891 528.012 89.1111L521.279 89.9852L515.537 96.1984C515.726 96.6 515.915 97.0017 516.104 97.4269L521.964 91.1192Z" fill="#5D3138"/>
<path d="M513.174 79.2363L519.719 78.4094L518.585 77.2991L512.489 78.1023L506.37 84.7171L507.268 85.5912L513.174 79.2363Z" fill="#5D3138"/>
<path d="M502.235 69.1959L509.182 68.3218L508.993 67.9674L508.213 67.2114L501.526 68.0619L495.738 74.346L496.636 75.2201L502.235 69.1959Z" fill="#5D3138"/>
<path d="M507.693 74.2041L514.521 73.3536L513.387 72.2433L507.008 73.0702L501.054 79.5196L501.952 80.3937L507.693 74.2041Z" fill="#5D3138"/>
<path d="M496.399 66.7152H495.313V59.2972L494.155 51.0523C494.108 50.6979 493.895 50.4381 493.588 50.2963C493.257 50.1546 492.926 50.1782 492.619 50.3672L487.563 53.7691L486.949 52.8714L492.005 49.4695C492.595 49.0678 493.351 48.997 494.013 49.3041C494.675 49.5876 495.124 50.2018 495.218 50.9105L496.399 59.2263V66.7152Z" fill="#E26600"/>
<path d="M489.665 27.7115L488.626 28.9872C487.492 30.4283 486.57 32.838 486.57 34.3499V42.2405C486.57 43.7524 487.941 43.965 489.075 42.524L489.665 40.8939C490.8 39.4292 491.201 37.7755 491.201 36.2635L491.65 28.373C491.674 26.8847 490.8 26.2704 489.665 27.7115Z" fill="#1F140B"/>
<path d="M489.619 28.2783L489.099 28.9871C487.965 30.4282 487.043 32.8379 487.043 34.3498V42.2404C487.043 43.7523 487.965 43.7996 489.099 42.3349L490.138 40.8701C491.272 39.4054 491.674 37.7517 491.674 36.2397V28.3492C491.674 26.8845 490.753 26.8372 489.619 28.2783Z" fill="#332D28"/>
<path d="M485.129 53.5329L487.775 47.5087C488.839 46.2093 489.406 44.5793 489.406 42.9019L489.382 26.5775C489.382 25.2309 487.799 24.4749 486.759 25.3254L482.01 29.2234L482.412 30.1448L487.067 26.1523C487.704 25.6089 488.697 26.0577 488.697 26.9082V42.5476C488.697 44.2485 488.106 45.8786 487.043 47.2016L484.68 52.8006L485.129 53.5329Z" fill="#312821"/>
<path d="M409.617 42.0515L407.68 56.4387L475.277 111.98L482.436 105.837L438.773 56.6513L413.61 42.1223L409.617 42.0515Z" fill="#380009"/>
<path d="M463.109 87.6228L488.035 73.2356L488.579 56.6985L484.373 26.6956L459.447 41.0828L463.676 71.0857L463.109 87.6228Z" fill="#5C2930"/>
<path d="M487.232 53.6745L479.459 60.0768L477.923 60.7619L464.408 66.7861L461.408 44.7681L470.292 40.2559L474.332 38.2006L483.901 31.7511L484.042 31.6802L487.09 52.5878L487.232 53.6745Z" fill="#67383F"/>
<path d="M487.232 53.6746L479.435 60.1005L477.923 60.7856C476.978 56.5805 475.513 50.5562 474.45 47.7922C472.867 43.7288 470.67 40.7757 470.292 40.2796L474.332 38.2243L483.901 31.7748L487.091 52.6115L487.232 53.6746Z" fill="#7E7E7E"/>
<path d="M487.232 53.6746L483.263 50.8633L474.332 53.8872L463.629 61.1163L464.408 66.7861L479.459 60.0768L487.232 53.6746Z" fill="#784A51"/>
<path d="M463.676 71.0858L465.613 69.7156L487.752 55.3992L488.437 55.6355L488.579 56.6986L484.846 73.5192L465.897 86.0165L463.109 87.6229L463.676 71.0858Z" fill="#ECBB1F"/>
<path d="M466.889 76.2124L466.039 78.3622L465.613 101.254L480.12 113.326L491.579 118.973L501.715 123.556L504.078 122.28L495.572 104.042L466.889 76.2124Z" fill="#5C2930"/>
<path d="M465.968 82.213L464.716 87.1977L478.183 99.884L483.263 106.286L480.711 93.1274L471.331 85.1896L465.968 82.213Z" fill="#380009"/>
<path d="M411.389 58.9665L467.81 113.893C467.81 113.893 475.182 122.752 474.142 130.076C473.079 137.399 468.448 138.084 463.014 134.966C457.58 131.824 405.601 101.821 405.601 101.821C405.601 101.821 388.211 90.0798 388.211 68.6525C388.187 49.4459 403.049 51.643 411.389 58.9665Z" fill="#250007"/>
<path d="M398.843 55.6354C399.056 55.6354 399.245 55.6354 399.457 55.659C397.827 58.2577 397.378 61.8723 397.378 65.1561C397.378 84.7407 412.878 95.9623 413.87 96.6474L471.213 129.745C471.52 129.934 471.827 130.076 472.134 130.241C471.355 134.754 469.181 134.754 468.448 134.754C467.22 134.754 465.684 134.234 463.983 133.265L406.64 100.167C405.648 99.4823 390.148 88.2607 390.148 68.6761C390.148 62.6991 391.661 55.6354 398.843 55.6354Z" fill="#4F1F26"/>
<path d="M438.324 105.861C438.324 108.979 436.103 110.255 433.386 108.672C430.669 107.089 428.448 103.286 428.448 100.144C428.448 97.0018 430.669 95.7497 433.386 97.3325C436.103 98.9154 438.324 102.719 438.324 105.861Z" fill="#6A3B42"/>
<path d="M436.343 106.455C437.56 105.744 437.553 103.469 436.328 101.374C435.103 99.2785 433.124 98.1566 431.907 98.8678C430.691 99.579 430.697 101.854 431.922 103.949C433.147 106.044 435.127 107.166 436.343 106.455Z" fill="#805E63"/>
<path d="M449.996 112.192C449.996 115.311 447.775 116.586 445.058 115.004C442.34 113.421 440.12 109.617 440.12 106.475C440.12 103.357 442.34 102.081 445.058 103.664C447.775 105.27 449.996 109.074 449.996 112.192Z" fill="#6A3B42"/>
<path d="M448.909 110.798C448.909 112.783 447.515 113.586 445.79 112.57C444.065 111.578 442.671 109.168 442.671 107.184C442.671 105.199 444.065 104.396 445.79 105.412C447.515 106.404 448.909 108.814 448.909 110.798Z" fill="#805E63"/>
<path d="M424.306 99.9569C431.144 95.9598 431.076 83.1227 424.155 71.2845C417.233 59.4462 406.079 53.0897 399.241 57.0868C392.403 61.0839 392.471 73.921 399.393 85.7593C406.314 97.5975 417.468 103.954 424.306 99.9569Z" fill="#4F1F26"/>
<path d="M420.492 101.183C427.183 97.2712 427.12 84.7135 420.349 73.1343C413.579 61.5551 402.667 55.3392 395.975 59.2507C389.284 63.1622 389.347 75.7199 396.118 87.2991C402.888 98.8783 413.801 105.094 420.492 101.183Z" fill="#E68D00"/>
<path d="M424.644 89.7018C424.644 100.12 417.296 104.302 408.223 99.0571C399.15 93.8125 391.802 81.1498 391.802 70.7315C391.802 60.3131 399.15 56.1316 408.223 61.3762C417.296 66.6208 424.644 79.2835 424.644 89.7018Z" fill="#6A3B42"/>
<path d="M401.584 59.1556C396.811 59.51 393.574 63.5497 393.574 70.3063C393.574 80.323 400.639 92.5132 409.381 97.5688C415.689 101.207 421.147 100.097 423.675 95.419C421.431 101.443 415.335 103.191 408.199 99.0571C399.127 93.8362 391.779 81.1499 391.779 70.7551C391.779 63.0536 395.819 58.754 401.584 59.1556Z" fill="#4F1820"/>
<path d="M423.486 87.6938C423.486 96.5766 417.201 100.144 409.475 95.6788C401.726 91.2138 395.464 80.3938 395.464 71.5111C395.464 62.6283 401.749 59.0374 409.475 63.526C417.201 67.991 423.486 78.811 423.486 87.6938Z" fill="#805E63"/>
<path d="M421.927 86.7961C421.927 94.6866 416.351 97.8523 409.475 93.8834C402.6 89.9145 397.024 80.2994 397.024 72.4088C397.024 64.5183 402.6 61.3526 409.475 65.3215C416.351 69.2904 421.927 78.9055 421.927 86.7961Z" fill="#6A3B42"/>
<path d="M420.273 84.2919C420.273 90.3161 416.02 92.7494 410.751 89.7255C405.482 86.6779 401.23 79.3307 401.23 73.3065C401.23 67.2822 405.482 64.849 410.751 67.8729C416.02 70.8968 420.273 78.244 420.273 84.2919Z" fill="#805E63"/>
<path d="M415.004 81.9058C415.004 85.2132 412.665 86.5362 409.783 84.8825C406.9 83.2288 404.561 79.189 404.561 75.8816C404.561 72.5742 406.9 71.2512 409.783 72.9049C412.665 74.5822 415.004 78.622 415.004 81.9058Z" fill="#E66A00"/>
<path d="M413.18 85.9404C415.208 84.7551 415.192 80.9544 413.143 77.4514C411.095 73.9484 407.791 72.0695 405.763 73.2548C403.736 74.4401 403.752 78.2407 405.8 81.7438C407.849 85.2468 411.153 87.1257 413.18 85.9404Z" fill="#E68D00"/>
<path d="M435.134 99.7895L432.961 100.876L418.17 91.1193L407.349 75.8816L408.223 75.4327L419.021 81.3861L428.235 84.8825L436.221 93.151L435.134 99.7895Z" fill="#FFB828"/>
<path d="M432.961 100.876L415.996 92.206L406.049 83.654L407.349 75.8816L416.847 82.4964L434.874 89.3475L432.961 100.876Z" fill="#EB7F00"/>
<path d="M420.462 84.8115L426.747 86.8668L425.66 87.7409L419.375 85.662L420.462 84.8115Z" fill="#FFB828"/>
<path d="M419.375 85.662L425.66 87.741V90.4578L419.375 88.3789V85.662Z" fill="#EC9700"/>
<path d="M425.66 87.741L426.747 86.8669V89.5838L425.66 90.4579V87.741Z" fill="#E26600"/>
<path d="M427.574 87.0795L433.858 89.1585L432.748 90.009L426.487 87.9537L427.574 87.0795Z" fill="#FFB828"/>
<path d="M426.487 87.9537L432.748 90.009V92.7258L426.487 90.6469V87.9537Z" fill="#EC9700"/>
<path d="M432.748 90.009L433.858 89.1586V91.8517L432.748 92.7258V90.009Z" fill="#006B8D"/>
<path d="M424.597 83.5123L422.565 84.6699L425.164 90.5051L433.386 98.3248L435.442 97.8523L436.221 93.1511L428.235 84.8825L424.597 83.5123Z" fill="#A7A7A7"/>
<path d="M416.847 82.4964L415.996 92.206L406.049 83.654L407.349 75.8816L416.847 82.4964Z" fill="#E27D00"/>
<path d="M457.84 110.137L454.697 111.932L447.727 103.215L430.952 86.5125L425.802 76.0942L428.92 74.2987L433.339 81.7877L450.303 98.6791L459.825 105.034L457.84 110.137Z" fill="#FF9A0A"/>
<path d="M454.697 111.932L444.609 105.01L427.81 88.308L423.817 81.1971L425.801 76.0942L430.196 83.6068L447.16 100.475L456.682 106.829L454.697 111.932Z" fill="#E27D00"/>
<path d="M471.921 127.69C471.921 133.336 467.928 135.628 463.014 132.769C458.1 129.934 454.107 123.036 454.107 117.39C454.107 111.743 458.1 109.452 463.014 112.31C467.928 115.169 471.921 122.044 471.921 127.69Z" fill="#E68D00"/>
<path d="M470.835 127.076C470.835 132.037 467.314 134.045 462.99 131.541C458.667 129.036 455.146 122.989 455.146 118.027C455.146 113.066 458.667 111.058 462.99 113.562C467.338 116.043 470.835 122.114 470.835 127.076Z" fill="#6A3B42"/>
<path d="M469.133 124.831C469.133 127.973 466.912 129.249 464.172 127.666C461.431 126.083 459.21 122.256 459.21 119.114C459.21 115.972 461.431 114.696 464.172 116.279C466.912 117.862 469.133 121.689 469.133 124.831Z" fill="#805E63"/>
<path d="M466.535 123.343C466.535 124.831 465.472 125.446 464.172 124.69C462.873 123.934 461.809 122.115 461.809 120.603C461.809 119.114 462.873 118.5 464.172 119.256C465.472 120.012 466.535 121.831 466.535 123.343Z" fill="#E66A00"/>
<path d="M465.802 123.461C465.802 124.76 464.881 125.28 463.747 124.642C462.613 123.981 461.691 122.398 461.691 121.099C461.691 119.799 462.613 119.28 463.747 119.917C464.881 120.579 465.802 122.162 465.802 123.461Z" fill="#E68D00"/>
<path d="M388.188 68.6524C388.188 90.0561 405.577 101.821 405.577 101.821C405.577 101.821 457.556 131.824 462.991 134.966C468.425 138.108 473.056 137.399 474.119 130.076C475.182 122.752 467.787 113.893 467.787 113.893L411.366 58.9665C403.049 51.6429 388.188 49.4458 388.188 68.6524ZM390.149 68.6524C390.149 62.6991 391.661 55.6354 398.843 55.6354C402.387 55.6354 406.688 57.4781 410.066 60.4312L466.369 115.24C467.031 116.067 473.079 123.768 472.205 129.816C471.496 134.777 469.205 134.777 468.449 134.777C467.22 134.777 465.684 134.257 463.983 133.289L406.64 100.191C405.648 99.4586 390.149 88.237 390.149 68.6524Z" fill="#816065"/>
<path d="M509.016 124.524V119.61L508.308 118.24L507.599 103.664L507.032 99.1988L479.672 75.1728L468.449 65.5814L465.614 69.7156L465.306 81.764C465.306 81.764 477.262 90.009 478.821 94.474C481.255 101.396 484.255 111.554 484.255 111.554L492.336 116.941L509.016 124.524Z" fill="#E25D00"/>
<path d="M530.848 90.2451L531.533 104.821L508.307 118.24L507.599 103.64L530.848 90.2451Z" fill="#FF9A0A"/>
<path d="M531.273 99.1279L530.848 90.2451L528.769 95.4897L516.317 102.672L507.599 103.64L508.048 112.759L516.648 111.767L529.123 104.585L531.273 99.1279Z" fill="#5C2930"/>
<path d="M530.966 92.7021L528.887 97.9467L516.435 105.128L507.717 106.121L507.669 104.892L516.364 103.9L528.839 96.7182L530.895 91.4736L530.966 92.7021Z" fill="#4A2126"/>
<path d="M531.084 95.1589L529.004 100.404L516.553 107.585L507.835 108.578L507.787 107.349L516.482 106.357L528.957 99.1751L531.013 93.9305L531.084 95.1589Z" fill="#4A2126"/>
<path d="M531.202 97.616L529.123 102.861L516.648 110.042L507.953 111.035L507.882 109.806L516.6 108.814L529.076 101.632L531.131 96.3876L531.202 97.616Z" fill="#4A2126"/>
<path d="M530.281 85.78L530.848 90.245L528.768 95.4896L516.317 102.671L507.599 103.64L507.032 99.1987L513.647 98.7971L529.383 89.7253L530.281 85.78Z" fill="#FF9A0A"/>
<path d="M531.533 104.821L531.486 103.806L533.447 105.483L508.52 119.894L484.444 105.081L485.46 104.278L508.308 118.24L531.533 104.821Z" fill="#FFD02D"/>
<path d="M533.447 110.42L508.52 124.808V119.894L533.447 105.483V110.42Z" fill="#FF9A0A"/>
<path d="M533.754 111.531L516.341 118.807L508.52 124.808L519.79 124.501L533.966 116.303L533.754 111.531Z" fill="#FF9A0A"/>
<path d="M533.446 105.483L508.52 119.894L519.79 119.587L533.754 111.531L533.446 105.483Z" fill="#FFD02D"/>
<path d="M531.533 104.821L508.307 118.24L517.002 117.248L529.477 110.066L531.533 104.821Z" fill="#FF9A0A"/>
<path d="M491.201 98.7973L493.706 100.215V101.443L490.8 99.0335L491.201 98.7973Z" fill="#DC6E36"/>
<path d="M490.8 99.0335L493.304 100.451V101.679L490.8 100.215V99.0335Z" fill="#FF8936"/>
<path d="M493.304 100.451L493.706 100.215V101.443L493.304 101.679V100.451Z" fill="#D75716"/>
<path d="M508.047 112.759L502.471 109.239L496.966 105.081L496.517 103.428L496.139 101.939L495.856 100.876V95.7969L503.724 101.679L507.598 103.664L507.669 104.892L507.717 106.121L507.788 107.349L507.835 108.578L507.882 109.806L507.953 111.035L508.047 112.759Z" fill="#380009"/>
<path d="M507.717 106.121L503.866 104.136L495.903 98.2065V97.0253L503.795 102.908L507.67 104.892L507.717 106.121Z" fill="#290006"/>
<path d="M507.835 108.578L503.984 106.617L495.856 100.545V99.3643L503.913 105.365L507.788 107.349L507.835 108.578Z" fill="#290006"/>
<path d="M507.953 111.035L504.102 109.074L496.518 103.428L496.14 101.939L504.007 107.845L507.882 109.806L507.953 111.035Z" fill="#290006"/>
<path d="M495.856 95.7969L484.019 87.6228L466.629 73.4954L466.771 78.5274L483.263 91.2137L495.856 99.3642V95.7969Z" fill="#290006"/>
<path d="M508.52 119.894L489.524 108.365L484.444 105.081L484.255 108.341L485.318 112.547L491.863 117.201L508.52 124.808V119.894Z" fill="#E26600"/>
<path d="M489.548 112.499L489.619 109.499L486.027 97.0254L488.414 95.6552L506.181 110.113L514.214 117.98L515.585 122.611L514.781 124.43L517.829 139.431L518.609 140.565V141.817L520.57 147.251L522.106 148.125L523.524 149.968L521.846 152.023L519.436 153.417L516.79 147.7L516.294 147.723L515.349 143.731L511.308 122.422L509.584 120.413L509.276 118.122L507.717 116.067L492.737 103.569L494.817 112.098L493.517 116.019L491.532 115.878L489.949 114.248L489.548 112.499Z" fill="#423D3D"/>
<path d="M512.395 125.824L514.781 124.43L515.585 122.611L513.175 124.004L512.395 125.824Z" fill="#1E1A1A"/>
<path d="M511.828 119.35L514.214 117.98L515.585 122.611L513.175 124.004L511.828 119.35Z" fill="#312C2C"/>
<path d="M512.395 125.823L514.782 124.43L517.829 139.431L518.609 140.565V141.817L519.932 146.873L518.16 148.621L516.223 143.211V141.935L515.443 140.825L512.395 125.823Z" fill="#382B2D"/>
<path d="M513.506 124.879C513.766 124.926 514.144 124.808 514.333 124.595C514.522 124.382 514.451 124.17 514.167 124.123C513.907 124.075 513.529 124.194 513.34 124.406C513.175 124.619 513.246 124.831 513.506 124.879Z" fill="#898989"/>
<path d="M518.633 139.715L518.94 139.596L520.972 145.81C520.877 145.857 520.759 145.881 520.641 145.881L518.633 139.715Z" fill="#939393"/>
<path d="M520.972 145.833L518.94 139.62L519.341 139.502L519.507 139.455L521.444 145.314V145.337C521.468 145.432 521.468 145.526 521.373 145.621L521.35 145.644C521.232 145.715 521.113 145.786 520.972 145.833Z" fill="#818181"/>
<path d="M518.325 139.833L518.632 139.738L520.664 145.904C520.617 145.904 520.57 145.904 520.499 145.904C520.357 145.857 520.263 145.81 520.263 145.692L518.325 139.833Z" fill="#898989"/>
<path d="M518.325 139.833L518.632 139.738L520.664 145.904C520.617 145.904 520.57 145.904 520.499 145.904C520.357 145.857 520.263 145.81 520.263 145.692L518.325 139.833Z" fill="#818181"/>
<path d="M518.94 139.62L519.341 139.502L521.35 145.597L521.326 145.621C521.232 145.715 521.113 145.786 520.972 145.833L518.94 139.62Z" fill="#898989"/>
<path d="M518.562 139.998C518.822 140.045 519.2 139.927 519.389 139.715C519.578 139.502 519.507 139.289 519.223 139.242C518.963 139.195 518.585 139.313 518.396 139.526C518.231 139.738 518.302 139.951 518.562 139.998Z" fill="#A7A7A7"/>
<path d="M515.419 130.69L515.916 130.525L519.223 140.589C519.058 140.66 518.869 140.707 518.703 140.683L515.419 130.69Z" fill="#939393"/>
<path d="M519.223 140.589L515.916 130.525L516.554 130.312L516.813 130.218L519.932 139.715C519.979 139.856 519.932 140.022 519.79 140.187L519.767 140.211C519.649 140.376 519.46 140.518 519.223 140.589Z" fill="#818181"/>
<path d="M514.923 130.856L515.419 130.69L518.703 140.683C518.609 140.683 518.538 140.683 518.443 140.66C518.207 140.612 518.065 140.494 518.042 140.353L514.923 130.856Z" fill="#818181"/>
<path d="M514.923 130.856L515.419 130.69L518.703 140.683C518.609 140.683 518.538 140.683 518.443 140.66C518.207 140.612 518.065 140.494 518.042 140.353L514.923 130.856Z" fill="#818181"/>
<path d="M515.916 130.525L516.554 130.312L519.814 140.187L519.79 140.211C519.649 140.376 519.436 140.494 519.223 140.565L515.916 130.525Z" fill="#898989"/>
<path d="M515.325 131.139C515.774 131.234 516.364 131.021 516.672 130.69C516.979 130.359 516.861 130.005 516.412 129.911C515.963 129.816 515.372 130.029 515.065 130.359C514.781 130.714 514.876 131.045 515.325 131.139Z" fill="#A7A7A7"/>
<path d="M513.576 124.595L513.883 124.477L515.939 130.69C515.821 130.737 515.726 130.761 515.608 130.761L513.576 124.595Z" fill="#939393"/>
<path d="M515.939 130.714L513.884 124.501L514.285 124.382L514.427 124.335L516.364 130.194C516.388 130.289 516.364 130.383 516.293 130.478H516.27C516.199 130.572 516.057 130.667 515.939 130.714Z" fill="#818181"/>
<path d="M513.269 124.689L513.576 124.595L515.608 130.761C515.561 130.761 515.514 130.761 515.443 130.737C515.301 130.714 515.207 130.643 515.207 130.548L513.269 124.689Z" fill="#898989"/>
<path d="M513.269 124.689L513.576 124.595L515.608 130.761C515.561 130.761 515.514 130.761 515.443 130.737C515.301 130.714 515.207 130.643 515.207 130.548L513.269 124.689Z" fill="#818181"/>
<path d="M513.884 124.501L514.285 124.382L516.293 130.478H516.27C516.175 130.572 516.057 130.643 515.939 130.69L513.884 124.501Z" fill="#898989"/>
<path d="M491.131 117.39L493.517 116.019L494.816 112.098L492.785 103.711L490.351 104.939L492.43 113.468L491.131 117.39Z" fill="#1E1A1A"/>
<path d="M487.161 113.893L487.209 110.869L486.027 102.506V97.0253L503.795 111.483L511.828 119.35L513.175 124.004L512.395 125.823L515.443 140.825L516.223 141.935V143.211L518.16 148.621L519.72 149.519L521.114 151.338L519.436 153.417L516.672 149.779L516.459 149.188L515.963 149.212L512.962 145.125L508.898 123.792L507.197 121.807L506.89 119.492L505.331 117.437L490.351 104.939L492.43 113.468L491.131 117.39L489.146 117.248L487.563 115.641L487.161 113.893Z" fill="#362326"/>
<path d="M474.143 130.076C475.206 122.752 467.811 113.893 467.811 113.893L411.389 58.9665C406.404 54.5959 399.08 52.0445 394 54.8322L405.884 47.9811C406.144 47.8157 406.404 47.6504 406.688 47.5323L406.711 47.5086C411.767 44.9572 418.926 47.485 423.841 51.7846L480.262 106.711C480.262 106.711 487.634 115.57 486.594 122.894C486.169 125.894 485.129 127.784 483.688 128.753L483.664 128.776C483.523 128.871 483.357 128.965 483.215 129.036L471.26 135.935C472.678 134.942 473.694 133.052 474.143 130.076Z" fill="#4F1F26"/>
<path d="M436.836 73.5427L443.806 72.6922L443.168 71.511L436.151 72.4087L430.953 78.0313L431.874 78.9054L436.836 73.5427Z" fill="#5D3138"/>
<path d="M431.354 68.5343L438.324 67.6602L437.71 66.5026L430.669 67.4003L425.636 72.834L426.534 73.7317L431.354 68.5343Z" fill="#5D3138"/>
<path d="M442.317 78.5746L449.263 77.7005L448.649 76.5192L441.632 77.4406L436.292 83.205L437.19 84.0791L442.317 78.5746Z" fill="#5D3138"/>
<path d="M425.897 63.5258L432.843 62.6517L432.229 61.4705L425.188 62.3919L420.321 67.6601L421.218 68.5342L425.897 63.5258Z" fill="#5D3138"/>
<path d="M447.799 83.583L454.745 82.7089L454.131 81.5276L447.114 82.449L441.609 88.3787L442.506 89.2764L447.799 83.583Z" fill="#5D3138"/>
<path d="M414.933 53.4856L421.88 52.6115L421.265 51.4303L414.248 52.3516L409.499 57.4781C409.854 57.7143 410.184 57.9742 410.515 58.234L414.933 53.4856Z" fill="#5D3138"/>
<path d="M420.415 58.5176L427.361 57.6435L426.747 56.4623L419.73 57.3836L415.004 62.4865L415.902 63.3606L420.415 58.5176Z" fill="#5D3138"/>
<path d="M409.452 48.4772L416.398 47.6031L416.28 47.3669C415.406 47.0597 414.532 46.8471 413.658 46.7054L408.767 47.3433L402.529 54.0998L402.576 54.1707C403.002 54.2888 403.403 54.4069 403.829 54.5486L409.452 48.4772Z" fill="#5D3138"/>
<path d="M474.308 109.381L481.254 108.507L480.64 107.326L473.623 108.247L468.094 114.224C468.283 114.46 468.543 114.814 468.85 115.24L474.308 109.381Z" fill="#5D3138"/>
<path d="M453.28 88.5913L460.226 87.7172L459.683 86.7014L459.541 86.5596L452.571 87.4574L446.924 93.5761L447.822 94.4502L453.28 88.5913Z" fill="#5D3138"/>
<path d="M485.767 125.965L485.578 125.587L478.561 126.509L473.836 131.611C473.576 132.627 473.245 133.501 472.82 134.21L472.938 134.446L479.246 127.642L485.318 126.886C485.484 126.579 485.625 126.296 485.767 125.965Z" fill="#5D3138"/>
<path d="M486.523 119.563L479.813 120.437L474.072 126.65C474.166 127.217 474.214 127.761 474.237 128.328L480.522 121.571L486.641 120.815C486.618 120.39 486.571 119.965 486.523 119.563Z" fill="#5D3138"/>
<path d="M478.49 115.523L485.082 114.696C484.917 114.295 484.728 113.893 484.539 113.515L477.805 114.389L472.064 120.602C472.253 121.004 472.442 121.406 472.631 121.831L478.49 115.523Z" fill="#5D3138"/>
<path d="M469.701 103.64L476.246 102.813L475.112 101.703L469.016 102.506L462.896 109.121L463.794 109.995L469.701 103.64Z" fill="#5D3138"/>
<path d="M458.738 93.5999L465.708 92.7494L465.495 92.3714L464.716 91.6154L458.053 92.4659L452.241 98.75L453.162 99.624L458.738 93.5999Z" fill="#5D3138"/>
<path d="M464.22 98.6318L471.048 97.7577L469.914 96.671L463.534 97.4978L457.58 103.924L458.478 104.798L464.22 98.6318Z" fill="#5D3138"/>
<path d="M452.24 83.8429L454.556 85.7801L446.523 90.0798L411.437 54.5015C411.437 54.5015 407.16 52.3281 404.23 51.8083C401.301 51.2886 398.607 52.1391 398.607 52.1391L405.837 47.9575C405.837 47.9575 411.059 47.296 411.744 47.5795C412.429 47.8394 438.088 68.18 438.088 68.18L452.24 83.8429Z" fill="#380009"/>
<path d="M413.445 38.2007L408.767 44.4848L423.604 46.3275L452.075 81.1262L462.518 88.5206L463.109 87.6229L444.538 56.2025L423.179 41.9098L416.965 39.0749L413.445 38.2007Z" fill="#E25D00"/>
<path d="M427.952 19.183L425.495 39.9961L424.29 41.3427L423.156 41.9097C423.156 41.9097 444.373 57.3364 446.617 61.14C448.862 64.9435 452.359 79.8505 452.359 79.8505L463.085 87.6229L463.652 71.0858L459.423 41.0828L427.952 19.183Z" fill="#380009"/>
<path d="M425.188 16.986L425.495 14.7417L426.44 14.3873L449.193 30.0503L462.826 41.1301L462.235 43.2091L460.297 42.5004L427.243 19.1831L425.188 16.986Z" fill="#E25D00"/>
<path d="M429.771 22.4196L427.55 42.3113L442.577 52.9896L443.097 31.326L429.771 22.4196Z" fill="#4F2F32"/>
<path d="M445.318 33.0978V54.5723L449.547 62.1794L454.012 79.7087L461.502 84.6226L462.424 70.4951L458.454 42.5948L445.318 33.0978Z" fill="#4F2F32"/>
<path d="M397.945 44.3194L402.151 45.2644L409.664 47.3905C409.664 47.3905 411.885 48.1229 417.296 52.3989C422.423 56.4387 435.725 71.133 435.725 71.133L445.27 84.717L446.546 87.174L453.185 83.3468V81.197L452.24 80.5119L442.53 64.5891L421.076 43.0673L407.042 40.3505L405.199 40.1379L397.945 44.3194Z" fill="#FFC523"/>
<path d="M442.53 64.5891L435.56 68.6288L445.601 84.3627L452.241 80.5119L442.53 64.5891Z" fill="#FF9A0A"/>
<path d="M502.92 67.2349V72.5031C502.92 72.7629 502.542 73.8969 502.235 74.0623C502.164 74.0859 502.117 74.1331 502.07 74.1331C501.668 74.3221 501.148 74.3458 500.676 74.2513L500.652 74.2276L500.227 74.0623C499.92 73.8969 499.801 73.6606 499.825 73.4244V68.1798L502.92 67.2349Z" fill="#615851"/>
<path d="M505.637 73.6372C505.614 74.4168 505.378 74.8657 505.047 75.2437C504.999 75.3145 504.952 75.3618 504.905 75.409C504.692 75.6216 504.125 75.7634 503.983 75.5508V75.5744L500.652 74.275L500.628 74.2514L500.203 74.086L500.605 73.5191L501.904 71.7473L501.928 71.7236L502.401 71.0858L502.66 71.2275L502.897 71.3456L505.401 72.645C505.543 72.8103 505.637 73.1647 505.637 73.6372Z" fill="#615851"/>
<path d="M505.047 75.2199C505 75.2908 504.952 75.338 504.905 75.3853C504.692 75.5979 504.125 75.7397 503.984 75.527V75.5507L500.652 74.2513L500.629 74.2277L500.203 74.0623C499.896 73.897 499.778 73.6607 499.802 73.4245V68.7232C500.44 68.6287 501.172 68.5578 501.739 68.5106C502.093 68.4869 502.519 68.2507 502.92 68.0381V70.7313C502.92 70.7313 502.92 70.7549 502.897 70.8258C502.873 70.8967 502.826 71.0384 502.684 71.1801C502.542 71.3455 502.33 71.5345 501.952 71.6762L501.928 71.6999C501.007 72.0543 500.558 72.2905 500.558 72.385C500.558 72.5031 500.629 73.4717 500.629 73.4717C500.629 73.4717 501.267 73.7788 502.07 74.1096C503.18 74.6293 504.645 75.2199 505.047 75.2199Z" fill="#463C34"/>
<path d="M504.196 38.744V68.747C504.196 68.7706 504.196 68.7706 504.196 68.7706C504.196 69.2194 503.936 69.6447 503.393 69.9754C503.369 69.9991 503.346 69.999 503.322 70.0227C502.778 70.3298 502.093 70.4952 501.384 70.5188C500.841 70.5424 500.274 70.4952 499.778 70.3298C499.518 70.2589 499.282 70.1644 499.093 70.0463C498.478 69.6919 498.195 69.2195 498.242 68.747V38.744H504.196Z" fill="#69645F"/>
<path d="M499.801 38.744V70.3298C499.542 70.259 499.305 70.1645 499.116 70.0464C498.502 69.692 498.218 69.2195 498.266 68.747V38.744H499.801Z" fill="#615851"/>
<path d="M503.393 38.744V69.9755C503.369 69.9991 503.345 69.9991 503.322 70.0227C502.778 70.3298 502.093 70.4952 501.384 70.5188V38.744H503.393Z" fill="#737373"/>
<path d="M498.856 45.028C499.117 45.028 499.329 44.6895 499.329 44.272C499.329 43.8545 499.117 43.516 498.856 43.516C498.596 43.516 498.384 43.8545 498.384 44.272C498.384 44.6895 498.596 45.028 498.856 45.028Z" fill="#2B2B2B"/>
<path d="M498.856 48.737C499.117 48.737 499.329 48.3985 499.329 47.981C499.329 47.5634 499.117 47.225 498.856 47.225C498.596 47.225 498.384 47.5634 498.384 47.981C498.384 48.3985 498.596 48.737 498.856 48.737Z" fill="#2B2B2B"/>
<path d="M499.329 51.6902C499.329 52.0918 499.116 52.4461 498.856 52.4461C498.597 52.4461 498.384 52.1154 498.384 51.6902C498.384 51.2885 498.597 50.9341 498.856 50.9341C499.116 50.9341 499.329 51.2885 499.329 51.6902Z" fill="#2B2B2B"/>
<path d="M499.329 55.3992C499.329 55.8008 499.116 56.1552 498.856 56.1552C498.597 56.1552 498.384 55.8244 498.384 55.3992C498.384 54.9739 498.597 54.6432 498.856 54.6432C499.116 54.6432 499.329 54.9739 499.329 55.3992Z" fill="#2B2B2B"/>
<path d="M498.856 59.8642C499.117 59.8642 499.329 59.5257 499.329 59.1082C499.329 58.6907 499.117 58.3522 498.856 58.3522C498.596 58.3522 498.384 58.6907 498.384 59.1082C498.384 59.5257 498.596 59.8642 498.856 59.8642Z" fill="#2B2B2B"/>
<path d="M499.329 62.8172C499.329 63.2188 499.116 63.5732 498.856 63.5732C498.597 63.5732 498.384 63.2425 498.384 62.8172C498.384 62.392 498.597 62.0613 498.856 62.0613C499.116 62.0613 499.329 62.392 499.329 62.8172Z" fill="#2B2B2B"/>
<path d="M501.479 46.8706C501.479 47.2722 501.196 47.6266 500.818 47.6266C500.463 47.6266 500.156 47.2959 500.156 46.8706C500.156 46.4454 500.44 46.1147 500.818 46.1147C501.172 46.1147 501.479 46.4454 501.479 46.8706Z" fill="#2B2B2B"/>
<path d="M501.479 50.5797C501.479 50.9813 501.196 51.3357 500.818 51.3357C500.463 51.3357 500.156 51.005 500.156 50.5797C500.156 50.1545 500.44 49.8237 500.818 49.8237C501.172 49.8237 501.479 50.1545 501.479 50.5797Z" fill="#2B2B2B"/>
<path d="M501.479 54.2888C501.479 54.6904 501.196 55.0448 500.818 55.0448C500.463 55.0448 500.156 54.714 500.156 54.2888C500.156 53.8635 500.44 53.5328 500.818 53.5328C501.172 53.5328 501.479 53.8635 501.479 54.2888Z" fill="#2B2B2B"/>
<path d="M501.479 57.9742C501.479 58.3758 501.196 58.7301 500.818 58.7301C500.463 58.7301 500.156 58.3994 500.156 57.9742C500.156 57.549 500.44 57.2182 500.818 57.2182C501.172 57.2418 501.479 57.5726 501.479 57.9742Z" fill="#2B2B2B"/>
<path d="M501.479 61.6832C501.479 62.0848 501.196 62.4392 500.818 62.4392C500.463 62.4392 500.156 62.1084 500.156 61.6832C500.156 61.258 500.44 60.9272 500.818 60.9272C501.172 60.9509 501.479 61.2816 501.479 61.6832Z" fill="#2B2B2B"/>
<path d="M501.479 65.3922C501.479 65.7939 501.196 66.1482 500.818 66.1482C500.463 66.1482 500.156 65.8175 500.156 65.3922C500.156 64.967 500.44 64.6362 500.818 64.6362C501.172 64.6599 501.479 64.9906 501.479 65.3922Z" fill="#2B2B2B"/>
<path d="M503.298 45.028C503.298 45.4296 503.038 45.784 502.731 45.784C502.424 45.784 502.164 45.4532 502.164 45.028C502.164 44.6264 502.424 44.272 502.731 44.272C503.038 44.272 503.298 44.6028 503.298 45.028Z" fill="#2B2B2B"/>
<path d="M503.298 48.7371C503.298 49.1387 503.038 49.4931 502.731 49.4931C502.424 49.4931 502.164 49.1623 502.164 48.7371C502.164 48.3118 502.424 47.9811 502.731 47.9811C503.038 47.9811 503.298 48.3118 503.298 48.7371Z" fill="#2B2B2B"/>
<path d="M503.298 52.446C503.298 52.8477 503.038 53.2021 502.731 53.2021C502.424 53.2021 502.164 52.8713 502.164 52.446C502.164 52.0444 502.424 51.6901 502.731 51.6901C503.038 51.6901 503.298 52.0208 503.298 52.446Z" fill="#2B2B2B"/>
<path d="M503.298 56.1314C503.298 56.5331 503.038 56.8874 502.731 56.8874C502.424 56.8874 502.164 56.5567 502.164 56.1314C502.164 55.7062 502.424 55.3754 502.731 55.3754C503.038 55.3754 503.298 55.7298 503.298 56.1314Z" fill="#2B2B2B"/>
<path d="M503.298 59.8405C503.298 60.2422 503.038 60.5965 502.731 60.5965C502.424 60.5965 502.164 60.2658 502.164 59.8405C502.164 59.4389 502.424 59.0846 502.731 59.0846C503.038 59.0846 503.298 59.4389 503.298 59.8405Z" fill="#2B2B2B"/>
<path d="M503.298 63.5496C503.298 63.9512 503.038 64.3055 502.731 64.3055C502.424 64.3055 502.164 63.9748 502.164 63.5496C502.164 63.1243 502.424 62.7936 502.731 62.7936C503.038 62.7936 503.298 63.148 503.298 63.5496Z" fill="#2B2B2B"/>
<path d="M504.102 43.1617C504.102 43.5633 504.007 43.9176 503.889 43.9176C503.771 43.9176 503.676 43.5869 503.676 43.1617C503.676 42.7601 503.771 42.4057 503.889 42.4057C504.007 42.4057 504.102 42.7365 504.102 43.1617Z" fill="#2B2B2B"/>
<path d="M504.102 46.8706C504.102 47.2722 504.007 47.6266 503.889 47.6266C503.771 47.6266 503.676 47.2959 503.676 46.8706C503.676 46.4454 503.771 46.1147 503.889 46.1147C504.007 46.1147 504.102 46.4454 504.102 46.8706Z" fill="#2B2B2B"/>
<path d="M504.102 50.5797C504.102 50.9813 504.007 51.3357 503.889 51.3357C503.771 51.3357 503.676 51.005 503.676 50.5797C503.676 50.1545 503.771 49.8237 503.889 49.8237C504.007 49.8237 504.102 50.1545 504.102 50.5797Z" fill="#2B2B2B"/>
<path d="M504.102 54.2888C504.102 54.6904 504.007 55.0448 503.889 55.0448C503.771 55.0448 503.676 54.714 503.676 54.2888C503.676 53.8635 503.771 53.5328 503.889 53.5328C504.007 53.5328 504.102 53.8635 504.102 54.2888Z" fill="#2B2B2B"/>
<path d="M503.889 58.7301C504.006 58.7301 504.102 58.3917 504.102 57.9742C504.102 57.5567 504.006 57.2182 503.889 57.2182C503.771 57.2182 503.676 57.5567 503.676 57.9742C503.676 58.3917 503.771 58.7301 503.889 58.7301Z" fill="#2B2B2B"/>
<path d="M503.889 62.4392C504.006 62.4392 504.102 62.1007 504.102 61.6832C504.102 61.2657 504.006 60.9272 503.889 60.9272C503.771 60.9272 503.676 61.2657 503.676 61.6832C503.676 62.1007 503.771 62.4392 503.889 62.4392Z" fill="#2B2B2B"/>
<path d="M504.102 65.3922C504.102 65.7939 504.007 66.1482 503.889 66.1482C503.771 66.1482 503.676 65.8175 503.676 65.3922C503.676 64.967 503.771 64.6362 503.889 64.6362C504.007 64.6599 504.102 64.9906 504.102 65.3922Z" fill="#2B2B2B"/>
<path d="M499.116 39.9488C500.274 40.6103 502.164 40.6103 503.346 39.9488C504.503 39.2637 504.527 38.177 503.369 37.5155C502.212 36.854 500.321 36.854 499.14 37.5155C497.959 38.2006 497.935 39.2873 499.116 39.9488Z" fill="#838383"/>
<path d="M499.778 32.0818L502.637 34.0191V38.2478C502.66 38.4604 502.518 38.6967 502.211 38.862C501.644 39.1928 500.746 39.1928 500.179 38.862C499.872 38.6967 499.754 38.4604 499.778 38.2478V32.0818Z" fill="#615851"/>
<path d="M500.203 32.9323C500.77 33.6174 501.668 34.208 502.235 34.2316C502.802 34.2789 502.802 33.7591 502.235 33.074C501.668 32.3889 500.77 31.7983 500.203 31.7747C499.66 31.7275 499.66 32.2472 500.203 32.9323Z" fill="#838383"/>
<path d="M501.928 33.0505C501.526 32.578 500.888 32.1528 500.51 32.1292C500.109 32.1055 500.109 32.4599 500.51 32.956C500.912 33.4285 501.55 33.8537 501.928 33.8773C502.33 33.8773 502.33 33.523 501.928 33.0505Z" fill="#332D28"/>
<path d="M507.031 99.1989L513.647 98.7973L529.383 89.7255L530.28 85.7802L498.313 63.526L486.405 55.2339L479.482 60.7384L468.448 65.5814L479.671 75.1729L507.031 99.1989Z" fill="#FFC523"/>
<path d="M495.974 61.8959L528.745 85.7802L527.658 88.5679L513.245 96.8364L507.031 97.805L481.798 76.3776L468.448 65.5813L507.031 99.1988L513.647 98.7972L529.383 89.7255L530.28 85.7802L495.974 61.8959Z" fill="#FF6200"/>
<path d="M397.945 45.5477L399.765 46.9179L413.09 49.3276L433.977 70.3061L444.373 85.3076L446.546 87.1976V85.0477L445.601 84.3626L435.56 68.6288L413.799 47.2723L399.788 44.5555L397.945 44.3193V45.5477Z" fill="#E25D00"/>
<path d="M486.405 55.2339L487.752 55.3992L530.28 85.7802L486.405 55.2339Z" fill="#E29200"/>
<path d="M487.752 26.7428L462.825 41.1301L449.193 30.0502L426.44 14.3872L425.495 14.7416L450.421 0.354387L451.366 0L474.095 15.663L487.752 26.7428Z" fill="#FFC523"/>
<path d="M474.096 15.663L449.193 30.0502L462.825 41.13L487.752 26.7428L474.096 15.663Z" fill="#FFD02D"/>
<path d="M487.161 28.8217L462.235 43.209L462.825 41.13L487.752 26.7428L487.161 28.8217Z" fill="#ECBB1F"/>
<path d="M413.445 38.2006L426.842 29.0579L425.495 40.0196L424.313 41.3426L423.179 41.9096L413.445 38.2006Z" fill="#F37C00"/>
<path d="M452.524 46.7053L451.13 46.8471C449.996 47.0833 449.075 48.4772 449.075 49.9891V58.7538C449.075 60.2657 449.996 61.3052 451.13 61.069L453.02 60.7382C454.154 60.502 454.556 59.2971 454.556 57.7852V49.0205C454.556 47.5322 453.658 46.4927 452.524 46.7053Z" fill="#1F140B"/>
<path d="M452.524 46.9652L451.13 47.107C449.996 47.3432 449.075 48.7371 449.075 50.249V59.0137C449.075 60.5256 449.996 61.5651 451.13 61.3289L453.02 60.9981C454.154 60.7619 454.556 59.557 454.556 58.0451V49.2804C454.556 47.7685 453.658 46.729 452.524 46.9652Z" fill="#332D28"/>
<path d="M452.689 60.1477V49.4459C452.689 47.7449 453.374 46.1148 454.579 44.91L459.328 40.2323L459.376 39.6654L458.927 39.4764L453.8 44.3666C452.547 45.5715 451.839 47.2252 451.839 48.9734V60.384C451.839 62.4865 452.902 64.4474 454.65 65.605L462.872 71.0149L463.439 70.8023L463.109 69.9755L455.052 64.5891C453.563 63.5496 452.689 61.9196 452.689 60.1477Z" fill="#312821"/>
<path d="M429.393 41.1301C429.795 41.2719 443.073 33.0742 443.073 33.0742L443.12 31.3024L430.527 22.396L429.393 41.1301Z" fill="#664A4C"/>
<path d="M453.186 81.2206L446.546 85.0478V87.1976L453.186 83.3468V81.2206Z" fill="#FF9A0A"/>
<path d="M421.076 43.0673L413.799 47.2724L397.945 44.3194L405.199 40.1379L421.076 43.0673Z" fill="#FFB828"/>
<path d="M408.318 38.2715L403.332 41.1301V43.6106L409.145 38.7204L408.318 38.2715Z" fill="#FFD02D"/>
<path d="M409.145 38.7203L404.16 41.6025V44.083L409.145 41.2008V38.7203Z" fill="#E29200"/>
<path d="M404.159 41.6025L403.332 41.13V43.6106L404.159 44.0831V41.6025Z" fill="#E25B00"/>
<path d="M426.44 14.3872L450.09 29.5305L463.109 39.6417L485.672 26.6956L472.938 16.3481L451.366 0L474.095 15.663L487.752 26.7428L462.825 41.1301L449.192 30.0502L426.44 14.3872Z" fill="#FF6200"/>
<path d="M521.444 104.751L521.586 107.184L519.341 108.483L519.2 106.026L521.444 104.751Z" fill="#F1F1F1"/>
<path d="M526.736 101.703L526.878 104.113L524.657 105.412L524.492 102.979L526.736 101.703Z" fill="#F1F1F1"/>
<path d="M519.318 108.176L519.27 107.255L520.664 106.404L521.562 106.9L521.444 104.751L519.2 106.026L519.318 108.176Z" fill="#AAAAAA"/>
<path d="M524.61 105.129L524.563 104.207L525.957 103.357L526.854 103.853L526.736 101.703L524.492 102.979L524.61 105.129Z" fill="#AAAAAA"/>
<path d="M522.247 111.814C522.247 112.334 521.846 112.925 521.302 113.255L518.632 114.838C518.183 115.122 517.734 114.956 517.782 114.507V114.436L517.853 113.704C517.853 113.279 518.16 112.83 518.609 112.57L520.546 111.413L521.633 110.775C521.964 110.586 522.295 110.704 522.271 111.011L522.247 111.814Z" fill="#CDCDCD"/>
<path d="M519.577 113.539L517.781 114.436L517.852 113.704C517.852 113.279 518.16 112.83 518.608 112.57L520.546 111.413L520.522 112.098C520.522 112.641 520.144 113.208 519.577 113.539Z" fill="#E3E7EB"/>
<path d="M528.981 107.845C528.981 108.365 528.579 108.956 528.036 109.286L525.366 110.869C524.917 111.153 524.468 110.987 524.515 110.539V110.468L524.586 109.735C524.586 109.31 524.893 108.861 525.342 108.601L527.28 107.444L528.367 106.806C528.697 106.617 529.028 106.735 529.005 107.042L528.981 107.845Z" fill="#CDCDCD"/>
<path d="M526.311 109.594L524.516 110.491L524.587 109.759C524.587 109.334 524.894 108.885 525.343 108.625L527.28 107.467L527.256 108.152C527.233 108.672 526.855 109.263 526.311 109.594Z" fill="#E3E7EB"/>
<path d="M428.59 13.5133L451.721 28.8692L451.815 29.0109L451.083 29.4598L428.448 13.8204L428.59 13.5133Z" fill="#E29200"/>
<path d="M429.18 13.1825L451.72 28.8691L451.248 29.1526L428.59 13.5132L429.18 13.1825Z" fill="#FFD02D"/>
<path d="M432.913 11.0328L456.044 26.3886L456.139 26.5304L455.406 26.9792L432.748 11.3399L432.913 11.0328Z" fill="#E29200"/>
<path d="M433.504 10.7019L456.044 26.3885L455.548 26.672L432.914 11.0326L433.504 10.7019Z" fill="#FFD02D"/>
<path d="M437.237 8.55206L460.344 23.9079L460.462 24.0496L459.706 24.4985L437.072 8.85915L437.237 8.55206Z" fill="#E29200"/>
<path d="M437.828 8.22125L460.344 23.9078L459.872 24.1913L437.237 8.55199L437.828 8.22125Z" fill="#FFD02D"/>
<path d="M441.561 6.09509L464.668 21.4274L464.763 21.5691L464.03 22.018L441.396 6.37857L441.561 6.09509Z" fill="#E29200"/>
<path d="M442.128 5.74072L464.668 21.4273L464.196 21.7108L441.561 6.09507L442.128 5.74072Z" fill="#FFD02D"/>
<path d="M445.861 3.61462L468.992 18.9468L469.087 19.0886L468.354 19.5375L445.696 3.92175L445.861 3.61462Z" fill="#E29200"/>
<path d="M446.452 3.26025L468.992 18.9468L468.496 19.2303L445.861 3.6146L446.452 3.26025Z" fill="#FFD02D"/>
<path d="M450.185 1.13397L473.316 16.4662L473.41 16.6079L472.654 17.0568L450.019 1.44107L450.185 1.13397Z" fill="#E29200"/>
<path d="M450.775 0.779663L473.316 16.4663L472.819 16.7498L450.185 1.13405L450.775 0.779663Z" fill="#FFD02D"/>
<path d="M451.248 29.1525L463.062 38.2007L463.18 38.366L462.424 38.8149L451.083 29.4597L451.248 29.1525Z" fill="#E29200"/>
<path d="M451.815 28.8218L463.061 38.2007L462.589 38.5078L451.248 29.1526L451.815 28.8218Z" fill="#FFD02D"/>
<path d="M455.548 26.6719L467.385 35.7201L467.48 35.8855L466.747 36.3343L455.406 26.979L455.548 26.6719Z" fill="#E29200"/>
<path d="M456.139 26.3413L467.385 35.7202L466.913 36.0273L455.548 26.672L456.139 26.3413Z" fill="#FFD02D"/>
<path d="M459.872 24.1915L471.709 33.2396L471.803 33.405L471.071 33.8539L459.706 24.4986L459.872 24.1915Z" fill="#E29200"/>
<path d="M460.463 23.8607L471.709 33.2396L471.213 33.5466L459.872 24.1914L460.463 23.8607Z" fill="#FFD02D"/>
<path d="M469.748 33.3577L467.905 34.4208L468.874 35.224L470.717 34.1609L469.748 33.3577Z" fill="#FFA036"/>
<path d="M470.716 34.1609L468.873 35.2241V36.1454L470.716 35.0823V34.1609Z" fill="#FF8936"/>
<path d="M468.874 35.224L467.905 34.4208V35.3421L468.874 36.1454V35.224Z" fill="#D75716"/>
<path d="M474.355 30.6644L472.512 31.7276L473.481 32.5308L475.324 31.4677L474.355 30.6644Z" fill="#FFA036"/>
<path d="M475.324 31.4677L473.481 32.5308V33.4521L475.324 32.3891V31.4677Z" fill="#FF8936"/>
<path d="M473.481 32.5308L472.512 31.7276V32.649L473.481 33.4522V32.5308Z" fill="#D75716"/>
<path d="M478.608 28.1131L476.765 29.1762L477.734 29.9794L479.577 28.9163L478.608 28.1131Z" fill="#FFA036"/>
<path d="M479.577 28.9162L477.734 29.9793V30.9007L479.577 29.8376V28.9162Z" fill="#FF8936"/>
<path d="M477.734 29.9794L476.765 29.1761V30.0975L477.734 30.9007V29.9794Z" fill="#D75716"/>
<path d="M464.196 21.7108L476.009 30.759L476.127 30.9243L475.371 31.3732L464.03 22.0179L464.196 21.7108Z" fill="#E29200"/>
<path d="M464.762 21.3801L476.009 30.7589L475.536 31.0661L464.195 21.7108L464.762 21.3801Z" fill="#FFD02D"/>
<path d="M468.495 19.2302L480.333 28.3021L480.427 28.4438L479.695 28.8927L468.354 19.5374L468.495 19.2302Z" fill="#E29200"/>
<path d="M469.086 18.8995L480.333 28.302L479.86 28.5855L468.496 19.2303L469.086 18.8995Z" fill="#FFD02D"/>
<path d="M472.819 16.7497L484.656 25.8215L484.751 25.9632L484.019 26.4121L472.654 17.0568L472.819 16.7497Z" fill="#E29200"/>
<path d="M473.41 16.4189L484.656 25.8215L484.16 26.1049L472.819 16.7496L473.41 16.4189Z" fill="#FFD02D"/>
<path d="M452.949 26.1995L452.666 23.1755L445.318 23.3173V23.3409C444.751 23.3646 444.184 23.4827 443.759 23.6953C442.861 24.1678 442.908 24.9001 443.9 25.3254C444.255 25.4907 444.704 25.5616 445.153 25.6089L452.949 26.1995Z" fill="#D99824"/>
<path d="M450.138 22.8448L455.737 22.7739V24.8293C455.761 25.16 455.525 25.5144 455.005 25.7743C453.965 26.3176 452.17 26.3413 451.036 25.8451C450.469 25.5853 450.161 25.2545 450.138 24.9002V22.8448Z" fill="#B2CDCF"/>
<path d="M450.398 17.742L455.218 17.6947L455.737 22.774C455.761 23.1047 455.525 23.4591 455.005 23.719C453.965 24.2623 452.17 24.286 451.036 23.7899C450.469 23.53 450.161 23.1992 450.138 22.8448L450.398 17.742Z" fill="#D76600"/>
<path d="M451.036 16.9387C451.933 16.4662 453.469 16.4426 454.462 16.8915C455.454 17.3167 455.501 18.0491 454.603 18.5216C453.705 18.994 452.17 19.0177 451.177 18.5688C450.185 18.1199 450.138 17.3876 451.036 16.9387Z" fill="#FFA71E"/>
<path d="M451.012 21.8998C451.981 21.4037 453.635 21.3801 454.698 21.829C455.761 22.3015 455.832 23.0811 454.84 23.5772C453.871 24.0733 452.217 24.0969 451.154 23.6244C450.091 23.1756 450.043 22.396 451.012 21.8998Z" fill="#FF9C00"/>
<path d="M453.658 19.9862C453.918 20.6713 454.013 21.758 453.753 22.3722C453.493 23.0101 452.312 22.8211 452.052 22.136C451.792 21.4509 451.863 21.0965 452.146 20.4823C452.406 19.868 453.398 19.3011 453.658 19.9862Z" fill="#FF9C00"/>
<path d="M452.713 20.5533C452.926 21.2384 452.902 22.2306 452.69 22.7267C452.477 23.2228 452.123 23.0811 451.91 22.396C451.697 21.7109 451.721 20.7186 451.934 20.2225C452.146 19.7264 452.501 19.8682 452.713 20.5533Z" fill="#FFA71E"/>
<path d="M576.661 139.762L520.806 172.009L506.394 160.764L503.488 133.029L559.342 100.782L562.248 120.319L566.879 130.903L576.661 139.762Z" fill="#262021"/>
<path d="M555.349 127.17L500.511 158.827L521.822 171.419L574.912 140.447L555.349 127.17Z" fill="#362E2F"/>
<path d="M518.987 168.064L572.833 136.998L575.645 140.353L521.822 171.419L518.987 168.064Z" fill="#5C4E4F"/>
<path d="M504.504 132.438L512.206 137.329L512.56 138.746L510.174 142.833L515.939 161.756L517.806 163.599L518.987 168.064L521.822 171.419L520.806 172.009L501.503 158.236L492.997 147.156L504.504 132.438Z" fill="#4A3F40"/>
<path d="M559.342 100.782L567.045 105.672L567.423 107.066L565.036 111.176L570.778 130.099L572.644 131.942L573.849 136.407L576.661 139.762L575.645 140.352L556.365 126.579L547.836 115.5L559.342 100.782Z" fill="#4A3F40"/>
<path d="M558.326 101.372L566.028 106.262L566.406 107.656L564.02 111.767L569.761 130.69L571.628 132.533L572.833 136.998L575.645 140.352L574.912 140.447L555.349 127.17L546.843 116.09L558.326 101.372Z" fill="#2E2728"/>
<path d="M503.488 133.029L511.19 137.919L511.544 139.337L509.158 143.424L514.923 162.347L516.79 164.189L517.971 168.654L520.806 172.009L520.074 172.104L500.511 158.827L491.981 147.747L503.488 133.029Z" fill="#2E2728"/>
<path d="M511.19 137.919L511.544 139.337L567.422 107.066L567.044 105.672L559.342 100.782L503.488 133.029L511.19 137.919Z" fill="#5C4E4F"/>
<path d="M574.912 140.447L562.248 139.337L554.073 136.407L547.836 134.588L513.624 154.149L510.174 142.833L512.561 138.746L566.407 107.656L564.02 111.767L569.762 130.69L571.628 132.533L572.833 136.998L575.645 140.353L574.912 140.447Z" fill="#AFABA6"/>
<path d="M516.176 167.851L512.372 164.945L503.677 137.494L507.481 140.4L516.176 167.851Z" fill="#A3A8B1"/>
<path d="M508.827 144.652L505.023 141.746L504.338 139.596L508.142 142.502L508.827 144.652Z" fill="#E82D24"/>
<path d="M510.292 149.283L506.488 146.377L505.803 144.227L509.607 147.133L510.292 149.283Z" fill="#E82D24"/>
<path d="M511.757 153.937L507.953 151.031L507.268 148.881L511.072 151.787L511.757 153.937Z" fill="#E82D24"/>
<path d="M513.222 158.567L509.418 155.661L508.757 153.511L512.561 156.417L513.222 158.567Z" fill="#E82D24"/>
<path d="M514.687 163.197L510.883 160.292L510.221 158.142L514.025 161.048L514.687 163.197Z" fill="#E82D24"/>
<path d="M516.152 167.851L512.371 164.945L511.686 162.772L515.49 165.701L516.152 167.851Z" fill="#E82D24"/>
<path d="M610 188.402L600.806 184L588.306 185.572L585 191.598L594.194 196L606.694 194.402L610 188.402Z" fill="#E0E0E0"/>
</svg>
