<svg width="17" height="17" viewBox="0 0 17 17" fill="none" xmlns="http://www.w3.org/2000/svg">
<path d="M15.916 11.8651V14.0806C15.9169 14.2863 15.8741 14.4899 15.7904 14.6783C15.7067 14.8668 15.584 15.0359 15.4301 15.175C15.2762 15.314 15.0945 15.4199 14.8966 15.4858C14.6987 15.5516 14.4891 15.5761 14.281 15.5576C11.9732 15.3107 9.75631 14.5342 7.80857 13.2904C5.99644 12.1566 4.46008 10.6438 3.30858 8.85944C2.04107 6.93285 1.25227 4.73936 1.00609 2.45667C0.987345 2.25246 1.01199 2.04663 1.07846 1.85231C1.14493 1.65798 1.25176 1.47941 1.39216 1.32797C1.53256 1.17653 1.70344 1.05553 1.89393 0.972681C2.08442 0.889831 2.29034 0.846944 2.49858 0.846751H4.74858C5.11255 0.843224 5.46542 0.970138 5.74139 1.20384C6.01737 1.43754 6.19763 1.76208 6.24857 2.11697C6.34354 2.82597 6.51966 3.52212 6.77357 4.19214C6.87448 4.45647 6.89632 4.74374 6.8365 5.01991C6.77668 5.29608 6.63772 5.54958 6.43607 5.75037L5.48357 6.68826C6.55124 8.53712 8.10591 10.068 9.98356 11.1192L10.9361 10.1814C11.14 9.9828 11.3974 9.84596 11.6779 9.78706C11.9584 9.72816 12.2501 9.74967 12.5186 9.84903C13.199 10.099 13.906 10.2725 14.626 10.366C14.9904 10.4166 15.3231 10.5973 15.5609 10.8737C15.7988 11.1501 15.9252 11.5029 15.916 11.8651Z" stroke="#4F4F4F" stroke-linecap="round" stroke-linejoin="round"/>
</svg>
