<svg width="18" height="24" viewBox="0 0 18 24" fill="none" xmlns="http://www.w3.org/2000/svg">
<path d="M2.71691 10.3747C2.58581 10.3748 2.45693 10.3409 2.34278 10.2764C2.22864 10.212 2.13311 10.1191 2.06548 10.0068C1.29538 8.79326 0.948205 7.35915 1.07803 5.9278C1.20786 4.49644 1.80739 3.1482 2.78326 2.09307C3.31329 1.51476 3.9578 1.05299 4.67584 0.737089C5.39388 0.421188 6.16977 0.258057 6.95423 0.258057C7.73869 0.258057 8.51458 0.421188 9.23262 0.737089C9.95067 1.05299 10.5952 1.51476 11.1252 2.09307C12.0601 3.10541 12.6505 4.38768 12.812 5.75616C12.9734 7.12464 12.6976 8.5091 12.0239 9.7112C11.9602 9.83815 11.8624 9.94488 11.7415 10.0195C11.6206 10.094 11.4814 10.1335 11.3393 10.1335C11.1973 10.1335 11.058 10.094 10.9371 10.0195C10.8162 9.94488 10.7185 9.83815 10.6547 9.7112C10.585 9.58246 10.5485 9.43838 10.5485 9.29199C10.5485 9.1456 10.585 9.00152 10.6547 8.87278C11.0541 8.15768 11.2618 7.3515 11.2579 6.53245C11.2904 5.35318 10.8541 4.20912 10.0445 3.35098C9.23501 2.49284 8.11831 1.99061 6.93915 1.95434C5.75893 1.98904 4.64069 2.49059 3.82987 3.34891C3.01906 4.20722 2.58191 5.35217 2.61437 6.53245C2.61294 7.43822 2.87034 8.32554 3.35628 9.08993C3.4368 9.21797 3.48298 9.36459 3.49038 9.51567C3.49777 9.66674 3.46613 9.81718 3.3985 9.95247C3.33605 10.0837 3.23782 10.1947 3.11511 10.2726C2.9924 10.3505 2.85019 10.3921 2.70485 10.3928L2.71691 10.3747Z" fill="white"/>
<path d="M9.7136 10.6643C9.66409 10.6444 9.61744 10.618 9.57487 10.5858C9.52781 10.5537 9.48832 10.5117 9.45915 10.4627C9.42998 10.4138 9.41184 10.359 9.40598 10.3024V6.29726L9.36979 6.12837C9.30806 5.82409 9.18267 5.53631 9.00185 5.28392C8.85813 5.09092 8.68274 4.92369 8.48312 4.78931C8.08247 4.53929 7.61598 4.41532 7.14407 4.43344C6.81114 4.4276 6.47996 4.4828 6.16692 4.5963C5.81093 4.71246 5.49673 4.93028 5.26307 5.22289C5.02941 5.5155 4.88651 5.87011 4.85199 6.24297V13.8671L4.76151 13.7706L4.65897 13.6741C4.39209 13.4683 4.0864 13.3186 3.76024 13.2338H3.66373C3.29353 13.164 2.91144 13.1936 2.55645 13.3197C2.20146 13.4458 1.88629 13.6639 1.64309 13.9516C1.42559 14.1521 1.252 14.3955 1.13327 14.6665C1.01454 14.9374 0.953247 15.23 0.953247 15.5259C0.953247 15.8217 1.01454 16.1143 1.13327 16.3853C1.252 16.6562 1.42559 16.8996 1.64309 17.1002L3.59738 19.3078L5.55168 21.5094C5.94916 21.9948 6.44739 22.3881 7.01186 22.662C7.57634 22.9359 8.19359 23.0839 8.8209 23.0957H15.0095C15.5374 23.035 16.0458 22.86 16.4993 22.583C16.9853 22.267 17.3794 21.8286 17.642 21.3119C17.9046 20.7951 18.0264 20.2183 17.9952 19.6395V14.41V14.2713C17.9309 13.8935 17.7958 13.5313 17.5971 13.2036C17.3745 12.8394 17.0709 12.5314 16.7101 12.3034C16.3492 12.0753 15.9407 11.9335 15.5162 11.8887L9.7136 10.6643ZM6.85454 20.3995L2.90976 15.9421C2.58404 15.5862 2.58404 15.4173 2.90976 15.0916C3.23548 14.7659 3.30786 14.8624 3.36817 14.8744C3.46443 14.8979 3.5548 14.941 3.63357 15.0011L5.17167 16.6598C5.28199 16.7802 5.42638 16.864 5.58557 16.9001C5.74477 16.9362 5.91119 16.9229 6.06261 16.8619C6.21404 16.8009 6.34327 16.6952 6.43304 16.5589C6.52281 16.4226 6.56885 16.2621 6.56501 16.0989V6.39377C6.56501 6.15249 6.90883 6.10424 7.16819 6.10424C7.42756 6.10424 7.61454 6.23091 7.65073 6.27313C7.69339 6.33234 7.72225 6.40036 7.73518 6.47218V10.3325C7.74745 10.6518 7.83265 10.964 7.98425 11.2452C8.13585 11.5265 8.34983 11.7693 8.60979 11.9551C8.84271 12.1169 9.10188 12.2373 9.37582 12.3109L15.2266 13.5475H15.287C15.4583 13.5645 15.6232 13.6221 15.7679 13.7154C15.9127 13.8088 16.0331 13.9352 16.1193 14.0843C16.2096 14.2344 16.271 14.4001 16.3003 14.5729V19.6275C16.331 19.9188 16.2828 20.2131 16.1607 20.4794C16.0387 20.7458 15.8473 20.9744 15.6066 21.1415C15.3658 21.2877 15.0963 21.3802 14.8165 21.4129H8.84503C8.46992 21.4007 8.10169 21.3088 7.76476 21.1435C7.42784 20.9781 7.12991 20.7431 6.89073 20.4538L6.85454 20.4116V20.3995Z" fill="white"/>
</svg>
