<svg width="639" height="309" viewBox="0 0 639 309" fill="none" xmlns="http://www.w3.org/2000/svg">
<path d="M1.99988 305.5L505.471 20H579.236H620.5" stroke="#F2F2F2" stroke-width="8"/>
<path d="M227.704 107.663L177.23 146.744L143.89 168.523L136.019 182.023L139.127 183.645L139.985 194.242L227.27 147.771L240.943 112.062L233.496 108.396L227.704 107.663Z" fill="#FFC523"/>
<path d="M235.151 111.319L146.998 170.146L139.127 183.645L139.985 194.242L144.808 195.962L230.075 149.208L242.265 138.103L240.943 112.062L235.151 111.319Z" fill="#E26600"/>
<path d="M136.019 182.023L139.127 183.645L139.985 194.242L136.857 192.414L136.019 182.023Z" fill="#FF9A0A"/>
<path opacity="0.33" d="M448.57 123.802L405.715 97.1746L348.763 104.496L152.285 168.494L179.863 181.993L168.41 191.133L162.114 190.674L142.689 201.338L209.964 240.429L233.93 236.695C233.93 236.695 249.823 244.144 265.806 240.947C270.61 239.989 276.704 237.751 282.87 235.102L301.255 238.367L346.361 218.416L373.394 225.874L436.603 189.98L403.444 176.07L409.822 172.824L429.771 181.172L436.603 177.468L408.934 164.897C408.934 164.897 441.466 151.524 444.706 148.406C447.945 145.268 448.57 123.802 448.57 123.802Z" fill="#BBBBBB"/>
<path d="M337.077 79.4914C337.057 78.9635 337.027 78.4454 336.987 77.9371L337.834 77.1356C337.693 75.7182 337.431 74.4083 337.098 73.1864L342.304 76.3829L339.671 69.3154L326.018 61.4758L325.947 61.5638L324.696 60.8404C323.576 60.381 316.523 56.7153 315.241 56.5784L313.677 56.5002C312.365 56.5002 310.973 56.6762 309.54 57.0183L309.106 58.162C309.076 58.1718 309.035 58.1816 309.005 58.1913L307.814 57.5071C306.381 57.9763 304.908 58.6117 303.394 59.4132L303.172 60.5276C302.95 60.6449 302.728 60.7622 302.506 60.8893C302.496 60.8991 302.476 60.9088 302.466 60.9186L301.618 60.4298C300.105 61.3585 298.632 62.4142 297.199 63.5872V64.6038C296.856 64.8873 296.523 65.1806 296.18 65.4836L295.473 65.073C294.04 66.3829 292.658 67.8003 291.336 69.3057L291.558 70.1659C291.164 70.6155 290.781 71.0847 290.408 71.5442L289.772 71.1825C288.49 72.7856 287.29 74.4669 286.17 76.2167L286.603 76.8618C286.26 77.3995 285.927 77.9371 285.615 78.4845L284.858 78.3672C283.808 80.1561 282.86 82.0036 282.012 83.8804L282.618 84.2714C282.355 84.8481 282.113 85.4346 281.871 86.0211L281.023 86.1873C280.277 88.0544 279.631 89.9507 279.116 91.8373L279.802 92.2284C279.671 92.7269 279.55 93.2156 279.439 93.7142L278.551 94.1638C278.147 95.9918 277.855 97.81 277.693 99.5988L278.501 100.068C278.48 100.41 278.45 100.752 278.44 101.094L277.562 101.788C277.552 102.101 277.542 102.414 277.542 102.727C277.542 104.115 277.633 105.435 277.804 106.676L278.884 107.292C278.914 107.419 278.924 107.556 278.955 107.693L278.147 108.592C278.47 110.058 278.914 111.407 279.469 112.61L280.771 113.352L280.277 114.105C280.943 115.21 281.72 116.187 282.607 117.008L283.929 117.771L283.818 118.005C284.434 118.445 288.309 122.883 288.995 123.206L303.324 129.208L303.828 129.002L308.056 131.241L309.933 130.273L305.826 125.845C306.825 125.61 307.855 125.298 308.904 124.897L309.227 123.763C309.721 123.567 310.216 123.352 310.72 123.118L310.831 124.066C311.548 123.724 312.274 123.352 313.011 122.932C313.748 122.512 314.474 122.052 315.191 121.564L315.302 120.498C315.806 120.156 316.301 119.804 316.795 119.433L317.118 120.185C318.571 119.071 319.984 117.849 321.346 116.52L321.235 115.581C321.709 115.112 322.173 114.633 322.627 114.144L323.152 114.672C324.494 113.225 325.776 111.681 326.977 110.068L326.644 109.306C327.047 108.748 327.451 108.181 327.844 107.614L328.531 107.869C329.671 106.168 330.74 104.418 331.709 102.61L331.184 102.091C331.507 101.485 331.82 100.87 332.113 100.254L332.92 100.224C333.798 98.3965 334.575 96.5294 335.251 94.6526L334.565 94.3984C334.787 93.7826 334.989 93.157 335.18 92.5412L336.058 92.2284C336.623 90.3809 337.057 88.5236 337.38 86.6859L336.573 86.7152C336.674 86.1287 336.765 85.5422 336.835 84.9557L337.723 84.3887C337.895 82.9518 337.986 81.5344 337.986 80.1463C337.986 79.8335 337.975 79.5402 337.965 79.2372L337.077 79.4914ZM336.088 73.2646C335.998 72.9616 335.887 72.6683 335.786 72.3751L336.654 72.9029L336.088 73.2646Z" fill="#481018"/>
<path d="M318.763 57.9861L326.149 62.8444L338.349 68.6801L334.746 67.7808L322.779 62.6293L315.241 56.5785L318.763 57.9861Z" fill="#4F1F26"/>
<path d="M284.858 78.377L291.053 87.4776L304.363 89.5793L301.528 95.0924L288.137 92.9517L282.012 83.8999L283.374 81.0847L284.858 78.377Z" fill="#4F1F26"/>
<path d="M281.033 86.197L288.238 95.3172L300.539 97.3993L298.632 103.049L286.25 100.928L279.126 91.8471L279.903 89.286L281.033 86.197Z" fill="#4F1F26"/>
<path d="M278.551 94.1638L285.342 103.235L298.056 105.366L297.199 110.801L284.414 108.631L277.693 99.5988L277.956 97.1746L278.551 94.1638Z" fill="#4F1F26"/>
<path d="M277.572 101.779L284.121 110.664L297.078 112.981L297.32 117.869L284.283 115.503L277.804 106.666L277.552 104.545L277.572 101.779Z" fill="#4F1F26"/>
<path d="M278.147 108.572L283.899 116.451L297.653 119.775L298.975 123.792L284.858 119.667L279.469 112.59L278.743 110.938L278.147 108.572Z" fill="#4F1F26"/>
<path d="M280.276 114.095L286.745 120.322L299.782 125.298L302.113 128.201L288.995 123.186L282.607 116.999L281.366 115.777L280.276 114.095Z" fill="#4F1F26"/>
<path d="M289.782 71.1923L295.968 80.2929L309.287 82.3946L305.685 87.4287L292.295 85.288L286.18 76.2265L287.976 73.5872L289.782 71.1923Z" fill="#4F1F26"/>
<path d="M295.483 65.0828L301.679 74.1834L314.989 76.2851L310.852 80.5177L297.461 78.3769L291.346 69.3154L293.213 67.2137L295.483 65.0828Z" fill="#4F1F26"/>
<path d="M301.618 60.4396L307.814 69.5304L321.124 71.6419L316.714 74.7992L303.324 72.6487L297.209 63.5969L299.096 62.072L301.618 60.4396Z" fill="#4F1F26"/>
<path d="M307.814 57.5071L313.384 65.0828L327.32 68.7094L322.9 70.6155L308.894 66.9596L303.394 59.423L305.332 58.4064L307.814 57.5071Z" fill="#4F1F26"/>
<path d="M313.667 56.5002L319.731 62.6293L333.172 67.7025L329.035 68.2206L315.907 64.0662L309.53 57.0183L311.81 56.6175L313.667 56.5002Z" fill="#4F1F26"/>
<path d="M334.494 67.9567L343.485 72.7367L341.114 76.3828L334.494 72.6585V67.9567Z" fill="#481018"/>
<path d="M336.976 72.6879L345.977 77.8589L343.596 81.4953L336.976 77.7709V72.6879Z" fill="#481018"/>
<path d="M337.955 79.1786L346.956 84.3496L344.575 87.986L337.955 84.2617V79.1786Z" fill="#481018"/>
<path d="M337.38 86.637L346.371 91.7982L344 95.4444L337.38 91.72V86.637Z" fill="#481018"/>
<path d="M335.251 94.5939L344.242 99.7649L341.871 103.401L335.251 99.6867V94.5939Z" fill="#481018"/>
<path d="M297.32 117.869C297.148 116.627 297.057 115.317 297.057 113.919C297.057 113.607 297.068 113.294 297.078 112.981L297.956 112.287C297.976 111.74 298.006 111.182 298.046 110.625L297.199 110.801C297.36 109.012 297.653 107.194 298.056 105.366L298.944 104.916C299.076 104.33 299.217 103.743 299.378 103.157L298.632 103.049C299.156 101.163 299.792 99.2664 300.539 97.3994L301.386 97.2332C301.629 96.6467 301.871 96.07 302.133 95.4835L301.528 95.0925C302.375 93.2156 303.324 91.3681 304.373 89.5793L305.13 89.6966C305.453 89.1492 305.786 88.6115 306.129 88.0739L305.695 87.4288C306.815 85.679 308.016 83.9977 309.298 82.3946L309.913 82.7856C310.297 82.3066 310.69 81.8374 311.094 81.3682L310.872 80.508C312.194 79.0026 313.576 77.5852 315.009 76.2753L315.443 76.9205C315.867 76.5393 316.301 76.1678 316.734 75.7963V74.7797C318.167 73.6067 319.641 72.551 321.154 71.6224L321.376 72.4826C321.598 72.3457 321.82 72.2089 322.042 72.0818C322.264 71.9547 322.486 71.8374 322.708 71.7201L322.93 70.6058C324.444 69.8042 325.917 69.159 327.35 68.6996V69.7162C327.784 69.5794 328.218 69.4523 328.642 69.3448L329.075 68.2011C330.508 67.8589 331.901 67.683 333.213 67.683L332.991 68.7973C333.394 68.7973 333.788 68.8169 334.171 68.856L334.787 67.7612C336.068 67.898 337.269 68.2011 338.389 68.6605L337.955 69.7944C338.298 69.941 338.631 70.0974 338.944 70.2734L339.701 69.2861C340.75 69.8824 341.699 70.6351 342.547 71.5344L341.941 72.6194C342.204 72.9029 342.446 73.1962 342.688 73.509L343.535 72.7074C344.282 73.7142 344.928 74.8677 345.453 76.158L344.706 77.1355C344.867 77.5461 345.009 77.9664 345.14 78.3965L346.028 77.8198C346.432 79.1785 346.724 80.6644 346.886 82.2675L346.038 83.069C346.088 83.5774 346.109 84.0954 346.129 84.6233L347.007 84.3105C347.017 84.6135 347.027 84.9068 347.027 85.2196C347.027 86.6076 346.936 88.0348 346.765 89.462L345.877 90.0289C345.806 90.6154 345.715 91.202 345.614 91.7885L346.421 91.7591C346.099 93.5969 345.655 95.4444 345.1 97.3016L344.222 97.6144C344.03 98.2401 343.818 98.8559 343.606 99.4717L344.292 99.7259C343.626 101.603 342.849 103.47 341.961 105.298L341.154 105.327C340.851 105.943 340.539 106.559 340.226 107.165L340.75 107.683C339.782 109.491 338.722 111.251 337.572 112.942L336.886 112.688C336.492 113.264 336.099 113.822 335.685 114.379L336.018 115.141C334.817 116.764 333.536 118.299 332.193 119.745L331.669 119.217C331.215 119.706 330.751 120.185 330.276 120.654L330.387 121.593C329.025 122.922 327.612 124.154 326.159 125.259L325.836 124.506C325.342 124.877 324.847 125.229 324.343 125.571L324.232 126.637C323.515 127.126 322.789 127.585 322.052 128.005C321.316 128.426 320.589 128.797 319.873 129.139L319.762 128.191C319.257 128.426 318.763 128.641 318.268 128.836L317.945 129.97C316.492 130.527 315.08 130.928 313.717 131.153L313.828 130.078C313.354 130.156 312.89 130.205 312.436 130.234L311.911 131.358C310.569 131.446 309.287 131.378 308.087 131.143L308.42 129.999C308.006 129.911 307.612 129.804 307.219 129.677L306.533 130.723C305.392 130.342 304.323 129.804 303.354 129.11L303.879 127.986C303.556 127.751 303.243 127.497 302.95 127.223L302.143 128.123C301.265 127.302 300.488 126.324 299.812 125.219L300.498 124.173C300.287 123.802 300.075 123.421 299.883 123.02L299.005 123.714C298.44 122.502 298.006 121.163 297.683 119.696L298.49 118.797C298.389 118.318 298.299 117.839 298.228 117.331L297.32 117.869Z" fill="#67383F"/>
<path d="M299.51 113.069C299.51 127.536 309.782 133.362 322.466 126.08C335.14 118.797 345.422 101.173 345.422 86.7053C345.422 72.2381 335.15 66.4122 322.466 73.6946C309.782 80.9771 299.51 98.6017 299.51 113.069Z" fill="#5C2930"/>
<path d="M304.726 110.068C304.726 121.241 312.668 125.747 322.456 120.127C332.254 114.506 340.185 100.889 340.185 89.7064C340.185 78.5334 332.244 74.027 322.456 79.6477C312.668 85.2782 304.726 98.895 304.726 110.068Z" fill="#67383F"/>
<path d="M306.603 108.445C306.603 118.162 313.505 122.072 322.022 117.184C330.539 112.297 337.441 100.459 337.441 90.7425C337.441 81.0261 330.539 77.116 322.022 82.0036C313.505 86.8911 306.603 98.7386 306.603 108.445Z" fill="#E49A00"/>
<path d="M336.129 91.4952C336.129 100.391 329.812 111.221 322.022 115.698C314.232 120.175 307.915 116.588 307.915 107.702C307.915 98.807 314.232 87.9762 322.022 83.4991C329.812 79.0221 336.129 82.5998 336.129 91.4952Z" fill="#BB5900"/>
<path d="M322.012 83.4991C314.222 87.9761 307.905 98.807 307.905 107.702C307.905 116.598 314.222 120.175 322.012 115.698C329.802 111.221 336.119 100.391 336.119 91.4952C336.129 82.5998 329.812 79.0221 322.012 83.4991ZM321.528 114.535C314.272 118.699 308.379 115.366 308.379 107.087C308.379 98.807 314.262 88.7093 321.528 84.5451C328.783 80.3809 334.666 83.7142 334.666 91.9937C334.676 100.273 328.793 110.361 321.528 114.535Z" fill="#E28B00"/>
<path d="M330.317 92.3163C330.317 98.9439 325.604 107.018 319.802 110.351C314.434 113.431 310.004 111.378 309.368 105.806C309.318 105.356 309.287 104.887 309.287 104.389C309.287 99.9214 311.427 94.7797 314.615 90.8989C316.139 89.0221 317.915 87.4386 319.802 86.3535C325.614 83.0202 330.317 85.6986 330.317 92.3163Z" fill="#DA7200"/>
<path d="M310.64 101.857C310.64 102.033 310.65 102.209 310.66 102.375C310.71 103.421 310.942 104.31 311.326 105.024L311.336 105.034C311.689 105.708 312.173 106.226 312.759 106.578C312.88 106.647 314.958 107.829 315.08 107.888C316.401 108.494 316.2 107.194 318.127 106.089C322.274 103.714 325.624 97.9663 325.624 93.2449C325.624 90.9282 326.946 90.4981 325.624 89.7259C325.493 89.6477 323.233 88.3671 323.092 88.3085C323.031 88.2694 322.971 88.2498 322.9 88.2303C321.871 87.8393 320.609 87.9077 319.217 88.4649C318.864 88.6115 318.5 88.7875 318.127 88.9927C314.979 90.8011 312.294 94.5646 311.185 98.328C310.952 99.11 310.791 99.892 310.71 100.654C310.66 101.065 310.64 101.466 310.64 101.857Z" fill="#380009"/>
<path d="M312.749 103.049C312.749 103.225 312.759 103.401 312.769 103.568C312.819 104.613 313.051 105.503 313.435 106.217L313.445 106.226C314.625 108.475 317.229 109.012 320.236 107.292C324.383 104.916 327.733 99.1687 327.733 94.4473C327.733 91.896 326.755 90.1756 325.201 89.5109C325.14 89.4718 325.079 89.4522 325.009 89.4327C323.98 89.0417 322.718 89.1101 321.326 89.6673C320.973 89.8139 320.609 89.9898 320.236 90.1951C317.088 92.0035 314.403 95.767 313.293 99.5304C313.061 100.312 312.9 101.094 312.819 101.857C312.779 102.267 312.749 102.658 312.749 103.049Z" fill="#543A3E"/>
<path d="M315.786 100.068C315.786 101.036 316.079 101.749 316.563 102.179C317.229 102.766 319.408 103.998 319.408 103.998L324.555 95.2196C324.555 95.2196 322.738 94.1932 322.234 93.7729C321.568 93.2157 320.549 93.1962 319.408 93.8511C317.411 94.9948 315.786 97.7807 315.786 100.068Z" fill="#380009"/>
<path d="M318.319 101.671C318.319 103.959 319.943 104.877 321.941 103.724C323.949 102.571 325.564 99.7846 325.564 97.4972C325.564 95.2098 323.939 94.2909 321.941 95.4444C319.943 96.5979 318.319 99.3838 318.319 101.671Z" fill="#63474B"/>
<path d="M320.216 100.527C320.216 100.938 320.337 101.241 320.539 101.417C320.821 101.661 321.507 102.013 321.507 102.013L323.687 98.289C323.687 98.289 323.162 98.025 322.95 97.8491C322.668 97.6145 322.234 97.6047 321.75 97.8882C320.912 98.3769 320.216 99.5597 320.216 100.527Z" fill="#380009"/>
<path d="M321.053 101.026C321.053 101.994 321.739 102.385 322.587 101.896C323.435 101.407 324.121 100.224 324.121 99.2567C324.121 98.2889 323.435 97.8979 322.587 98.3867C321.739 98.8754 321.053 100.058 321.053 101.026Z" fill="#786266"/>
<path d="M324.625 48.299C325.362 48.7193 340.549 57.4485 340.549 57.4485L324.01 61.2999L308.944 71.9352L298.056 86.4415L294.737 97.1648L278.813 88.0153L279.086 84.5354L281.689 76.334L292.537 62.0917L307.481 50.9871L324.625 48.299Z" fill="#4DC8D7"/>
<path d="M340.559 57.4387V59.1494L324.121 61.7398L309.398 72.2871L298.803 86.3242L295.796 96.1678L294.737 97.1746L295.009 93.6849L297.612 85.4836L308.46 71.2412L323.404 60.1367L340.559 57.4387Z" fill="#005565"/>
<path d="M279.086 84.5452L295.009 93.6849L294.737 97.1746L278.813 88.0251L279.086 84.5452Z" fill="#279EBE"/>
<path d="M281.689 76.3438L297.612 85.4835L295.009 93.6848L279.086 84.5451L281.689 76.3438Z" fill="#3FBADC"/>
<path d="M307.481 50.9969L323.404 60.1366L340.559 57.4387L324.625 48.299L307.481 50.9969Z" fill="#FFB828"/>
<path d="M292.537 62.1014L308.46 71.2412L297.612 85.4835L281.689 76.3438L292.537 62.1014Z" fill="#64D2E1"/>
<path d="M220.66 48.7388L222.446 50.9382C224.404 53.4407 225.998 57.5755 225.998 60.1757V73.7827C225.998 76.3829 222.739 76.6175 221.71 73.1082L220.65 71.4562C218.693 68.9538 217.986 66.0897 217.986 63.4993L217.421 50.8307C216.563 48.211 218.703 46.2364 220.66 48.7388Z" fill="#1F140B"/>
<path d="M220.741 49.7066L221.659 50.9382C223.617 53.4407 225.211 57.5756 225.211 60.1757V73.7827C225.211 76.3829 223.617 76.4611 221.659 73.9587L219.863 71.4465C217.906 68.944 217.199 66.0799 217.199 63.4895V49.8825C217.189 47.2823 218.783 47.2041 220.741 49.7066Z" fill="#332D28"/>
<path d="M222.406 47.341V71.9938C222.204 72.0525 221.972 72.0623 221.75 72.0916C221.639 72.0232 221.528 71.9645 221.427 71.8668C221.316 71.7592 221.266 71.6224 221.175 71.5051L221.205 46.7544C221.205 44.4182 223.94 43.1376 225.756 44.6137L234 51.3097L233.294 52.9128L225.242 46.0409C224.121 45.1024 222.406 45.8845 222.406 47.341Z" fill="#312821"/>
<path d="M314.06 87.4288L297.895 70.5178L338.218 46.2266L361.971 39.2765L355.019 63.9587L357.229 79.2275L326.654 126.568L303.445 113.235L313.122 104.477L314.06 87.4288Z" fill="#E25000"/>
<path d="M348.621 75.4249L328.702 82.8247L297.895 70.5178L338.218 46.2266L361.971 39.2765L385.18 52.6L357.229 79.2275L348.621 75.4249Z" fill="#FF9A0A"/>
<path d="M328.42 99.4913L328.702 82.8247L361.426 59.5501L385.18 52.6L391.567 84.9459L390.054 96.373L338.853 126.304L326.654 126.568L323.939 107.204L328.42 99.4913Z" fill="#E25D00"/>
<path d="M390.084 86.3828L382.062 58.1327L364.02 61.9841L328.52 86.4024L328.702 82.8247L361.426 59.5501L385.18 52.6L391.568 84.9459L390.054 96.373L390.084 86.3828Z" fill="#E26900"/>
<path d="M394.151 78.8267V88.895L393.192 91.9742L380.962 98.6311L378.873 89.1785L379.519 88.3672L392.284 81.6517L394.151 78.8267Z" fill="#E24A00"/>
<path d="M389.792 75.9332L394.151 78.8267L393.192 82.0427L378.873 89.1785L380.427 87.2333L390.922 81.6517L389.792 75.9332Z" fill="#FF9A0A"/>
<path d="M384.867 106.93C384.847 106.402 384.817 105.884 384.776 105.376L385.624 104.574C385.483 103.157 385.22 101.847 384.887 100.625L390.094 103.822L387.45 96.7444L373.798 88.9047L373.727 88.9927L372.476 88.2694C371.356 87.8099 364.302 84.1443 363.021 84.0074L361.457 83.9292C360.145 83.9292 358.752 84.1052 357.319 84.4473L356.886 85.591C356.855 85.6007 356.815 85.6105 356.785 85.6203L355.594 84.936C354.161 85.4052 352.688 86.0406 351.174 86.8422L350.952 87.9566C350.73 88.0739 350.508 88.1912 350.286 88.3182C350.276 88.328 350.256 88.3378 350.246 88.3476L349.398 87.8588C347.885 88.7874 346.411 89.8432 344.978 91.0162V92.0328C344.635 92.3163 344.302 92.6095 343.959 92.9125L343.253 92.502C341.82 93.8119 340.428 95.2292 339.116 96.7346L339.338 97.5948C338.944 98.0445 338.561 98.5137 338.187 98.9731L337.552 98.6114C336.27 100.215 335.069 101.896 333.949 103.646L334.383 104.291C334.04 104.828 333.707 105.366 333.394 105.913L332.637 105.796C331.588 107.585 330.639 109.433 329.792 111.309L330.397 111.7C330.135 112.277 329.893 112.864 329.651 113.45L328.803 113.616C328.056 115.483 327.41 117.38 326.886 119.266L327.572 119.657C327.441 120.156 327.32 120.645 327.209 121.143L326.321 121.593C325.917 123.421 325.624 125.239 325.463 127.028L326.28 127.497C326.26 127.839 326.23 128.181 326.22 128.523L325.342 129.217C325.332 129.53 325.322 129.843 325.322 130.156C325.322 131.544 325.412 132.863 325.584 134.105L326.664 134.721C326.694 134.848 326.704 134.985 326.734 135.122L325.927 136.021C326.25 137.487 326.694 138.836 327.249 140.038L328.551 140.781L328.056 141.534C328.722 142.639 329.499 143.616 330.387 144.437L331.709 145.2L331.598 145.434C332.214 145.874 336.088 150.322 336.775 150.635L351.104 156.637L351.608 156.431L355.836 158.67L357.713 157.702L353.606 153.274C354.605 153.039 355.634 152.727 356.684 152.326L357.007 151.192C357.501 150.996 357.996 150.781 358.5 150.547L358.611 151.495C359.328 151.153 360.054 150.781 360.791 150.361C361.527 149.941 362.254 149.481 362.97 148.992L363.081 147.927C363.586 147.585 364.08 147.233 364.575 146.861L364.898 147.614C366.351 146.5 367.763 145.278 369.126 143.948L369.015 143.01C369.489 142.541 369.953 142.062 370.407 141.573L370.932 142.101C372.274 140.654 373.555 139.11 374.756 137.497L374.423 136.734C374.837 136.177 375.231 135.61 375.624 135.043L376.31 135.298C377.451 133.597 378.52 131.847 379.489 130.038L378.964 129.52C379.287 128.914 379.6 128.299 379.892 127.683L380.7 127.653C381.578 125.825 382.355 123.958 383.031 122.082L382.345 121.827C382.567 121.212 382.768 120.586 382.96 119.97L383.838 119.657C384.403 117.81 384.837 115.953 385.16 114.115L384.353 114.144C384.453 113.558 384.544 112.971 384.615 112.385L385.503 111.818C385.674 110.381 385.765 108.963 385.765 107.575C385.765 107.262 385.755 106.969 385.745 106.666L384.867 106.93ZM383.868 100.703C383.777 100.4 383.666 100.107 383.566 99.8138L384.433 100.342L383.868 100.703Z" fill="#481018"/>
<path d="M366.553 85.4248L373.929 90.2831L386.129 96.1188L382.526 95.2097L370.559 90.0582L363.021 84.0172L366.553 85.4248Z" fill="#4F1F26"/>
<path d="M332.648 105.816L338.833 114.916L352.153 117.018L349.307 122.531L335.917 120.381L329.802 111.329L331.154 108.523L332.648 105.816Z" fill="#4F1F26"/>
<path d="M328.823 113.636L336.018 122.756L348.329 124.838L346.411 130.488L334.03 128.367L326.906 119.286L327.683 116.715L328.823 113.636Z" fill="#4F1F26"/>
<path d="M326.331 121.603L333.132 130.674L345.836 132.805L344.978 138.24L332.193 136.06L325.473 127.038L325.735 124.613L326.331 121.603Z" fill="#4F1F26"/>
<path d="M325.352 129.217L331.901 138.093L344.857 140.42L345.099 145.298L332.072 142.932L325.594 134.095L325.332 131.974L325.352 129.217Z" fill="#4F1F26"/>
<path d="M325.937 136.011L331.679 143.88L345.443 147.204L346.764 151.231L332.637 147.106L327.259 140.029L326.533 138.367L325.937 136.011Z" fill="#4F1F26"/>
<path d="M328.056 141.524L334.535 147.751L347.572 152.727L349.893 155.63L336.785 150.615L330.387 144.428L329.146 143.206L328.056 141.524Z" fill="#4F1F26"/>
<path d="M337.562 98.631L343.758 107.732L357.067 109.833L353.465 114.867L340.084 112.717L333.959 103.665L335.756 101.016L337.562 98.631Z" fill="#4F1F26"/>
<path d="M343.273 92.5215L349.459 101.622L362.779 103.724L358.641 107.956L345.251 105.806L339.126 96.7541L340.993 94.6427L343.273 92.5215Z" fill="#4F1F26"/>
<path d="M349.408 87.8685L355.604 96.9692L368.914 99.0708L364.494 102.228L351.114 100.087L344.989 91.0357L346.876 89.5108L349.408 87.8685Z" fill="#4F1F26"/>
<path d="M355.594 84.9458L361.164 92.5215L375.099 96.1481L370.69 98.0543L356.674 94.3886L351.184 86.8519L353.112 85.8353L355.594 84.9458Z" fill="#4F1F26"/>
<path d="M361.457 83.939L367.511 90.0582L380.962 95.1413L376.825 95.6593L363.697 91.4951L357.319 84.457L359.59 84.0465L361.457 83.939Z" fill="#4F1F26"/>
<path d="M382.274 95.3954L391.275 100.175L388.893 103.822L382.274 100.097V95.3954Z" fill="#481018"/>
<path d="M384.766 100.127L393.757 105.288L391.386 108.934L384.766 105.21V100.127Z" fill="#481018"/>
<path d="M385.735 106.617L394.736 111.779L392.365 115.425L385.735 111.7V106.617Z" fill="#481018"/>
<path d="M385.16 114.066L394.161 119.237L391.779 122.873L385.16 119.159V114.066Z" fill="#481018"/>
<path d="M383.031 122.033L392.032 127.204L389.65 130.84L383.031 127.116V122.033Z" fill="#481018"/>
<path d="M345.1 145.297C344.928 144.056 344.837 142.746 344.837 141.348C344.837 141.036 344.847 140.723 344.857 140.41L345.735 139.716C345.755 139.168 345.786 138.611 345.826 138.054L344.978 138.23C345.14 136.441 345.433 134.623 345.836 132.795L346.724 132.345C346.855 131.759 346.997 131.172 347.158 130.586L346.411 130.478C346.936 128.592 347.572 126.695 348.318 124.828L349.166 124.662C349.408 124.076 349.65 123.499 349.913 122.912L349.307 122.521C350.155 120.645 351.104 118.797 352.153 117.008L352.91 117.126C353.233 116.578 353.566 116.041 353.899 115.503L353.465 114.858C354.585 113.108 355.786 111.427 357.067 109.824L357.683 110.215C358.066 109.736 358.46 109.266 358.863 108.797L358.641 107.937C359.963 106.432 361.346 105.014 362.779 103.704L363.212 104.349C363.636 103.968 364.07 103.597 364.504 103.225V102.209C365.937 101.036 367.41 99.98 368.924 99.0513L369.146 99.9115C369.368 99.7747 369.59 99.6378 369.812 99.5107C370.034 99.3837 370.256 99.2664 370.478 99.1491L370.7 98.0347C372.213 97.2331 373.687 96.588 375.12 96.1285V97.1452C375.553 97.0083 375.987 96.8812 376.411 96.7737L376.845 95.63C378.278 95.2879 379.67 95.1119 380.982 95.1119L380.76 96.2263C381.164 96.2263 381.557 96.2459 381.941 96.285L382.556 95.1901C383.838 95.327 385.039 95.63 386.159 96.0895L385.725 97.2234C386.068 97.37 386.401 97.5264 386.714 97.7023L387.471 96.7151C388.52 97.3113 389.469 98.064 390.316 98.9633L389.711 100.048C389.973 100.332 390.215 100.625 390.458 100.938L391.305 100.136C392.052 101.143 392.698 102.297 393.222 103.587L392.476 104.564C392.637 104.975 392.778 105.395 392.91 105.825L393.798 105.249C394.201 106.607 394.494 108.093 394.655 109.696L393.808 110.498C393.858 111.006 393.878 111.524 393.898 112.052L394.776 111.739C394.786 112.042 394.797 112.336 394.797 112.649C394.797 114.037 394.706 115.464 394.534 116.891L393.646 117.458C393.576 118.044 393.485 118.631 393.384 119.217L394.191 119.188C393.868 121.026 393.424 122.873 392.869 124.731L391.991 125.043C391.8 125.669 391.588 126.285 391.376 126.901L392.062 127.155C391.396 129.032 390.619 130.899 389.731 132.727L388.924 132.756C388.621 133.372 388.308 133.978 387.995 134.594L388.52 135.112C387.551 136.92 386.492 138.68 385.341 140.371L384.655 140.117C384.262 140.693 383.868 141.251 383.455 141.808L383.788 142.57C382.587 144.193 381.305 145.728 379.963 147.174L379.438 146.646C378.984 147.135 378.52 147.614 378.046 148.083L378.157 149.022C376.795 150.351 375.382 151.583 373.929 152.687L373.606 151.935C373.111 152.306 372.617 152.658 372.112 153L372.002 154.066C371.285 154.555 370.559 155.014 369.822 155.434C369.085 155.855 368.359 156.226 367.642 156.568L367.531 155.62C367.027 155.855 366.532 156.07 366.038 156.265L365.715 157.399C364.262 157.956 362.849 158.357 361.487 158.582L361.598 157.507C361.124 157.585 360.659 157.634 360.205 157.663L359.681 158.787C358.339 158.875 357.057 158.807 355.856 158.572L356.189 157.428C355.776 157.34 355.382 157.233 354.988 157.106L354.302 158.152C353.162 157.771 352.092 157.233 351.124 156.539L351.648 155.415C351.326 155.18 351.013 154.926 350.72 154.652L349.913 155.552C349.035 154.73 348.258 153.753 347.582 152.648L348.268 151.602C348.046 151.231 347.844 150.85 347.652 150.449L346.775 151.143C346.21 149.931 345.776 148.592 345.453 147.125L346.26 146.226C346.159 145.747 346.068 145.268 345.998 144.76L345.1 145.297Z" fill="#411018"/>
<path d="M347.289 140.498C347.289 154.965 357.562 160.791 370.246 153.509C382.92 146.226 393.202 128.602 393.202 114.134C393.202 99.6672 382.93 93.8412 370.246 101.124C357.572 108.406 347.289 126.041 347.289 140.498Z" fill="#5C2930"/>
<path d="M352.506 137.507C352.506 148.68 360.448 153.186 370.236 147.556C380.024 141.935 387.965 128.318 387.965 117.135C387.965 105.962 380.024 101.456 370.236 107.077C360.448 112.707 352.506 126.334 352.506 137.507Z" fill="#67383F"/>
<path d="M354.383 135.884C354.383 145.601 361.285 149.511 369.802 144.623C378.318 139.735 385.22 127.898 385.22 118.181C385.22 108.465 378.318 104.555 369.802 109.442C361.285 114.33 354.383 126.168 354.383 135.884Z" fill="#E49A00"/>
<path d="M383.909 118.934C383.909 127.829 377.592 138.66 369.802 143.137C362.012 147.614 355.695 144.027 355.695 135.141C355.695 126.246 362.012 115.415 369.802 110.938C377.592 106.451 383.909 110.039 383.909 118.934Z" fill="#BB5900"/>
<path d="M369.802 110.928C362.012 115.405 355.695 126.236 355.695 135.131C355.695 144.027 362.012 147.604 369.802 143.127C377.592 138.65 383.909 127.82 383.909 118.924C383.909 110.029 377.592 106.451 369.802 110.928ZM369.317 141.964C362.062 146.128 356.169 142.795 356.169 134.515C356.169 126.236 362.052 116.138 369.317 111.974C376.573 107.81 382.456 111.143 382.456 119.423C382.456 127.702 376.573 137.8 369.317 141.964Z" fill="#E28B00"/>
<path d="M378.106 119.755C378.106 126.383 373.394 134.457 367.592 137.79C362.224 140.869 357.794 138.817 357.158 133.245C357.108 132.795 357.077 132.326 357.077 131.827C357.077 127.36 359.216 122.218 362.405 118.338C363.929 116.461 365.705 114.877 367.592 113.792C373.394 110.459 378.106 113.127 378.106 119.755Z" fill="#DA7200"/>
<path d="M365.13 118.093C365.13 119.169 365.897 119.599 366.835 119.061C367.784 118.523 368.54 117.204 368.54 116.129C368.54 115.053 367.773 114.623 366.835 115.161C365.886 115.708 365.13 117.018 365.13 118.093Z" fill="#380009"/>
<path d="M370.841 115.835C370.175 116.979 370.175 118.211 370.841 118.592C371.507 118.973 372.587 118.347 373.253 117.204C373.919 116.06 373.919 114.828 373.253 114.447C372.597 114.076 371.507 114.692 370.841 115.835Z" fill="#380009"/>
<path d="M374.252 119.217C373.313 119.755 372.546 121.075 372.546 122.15C372.546 123.225 373.313 123.655 374.252 123.118C375.2 122.58 375.957 121.26 375.957 120.185C375.957 119.11 375.2 118.68 374.252 119.217Z" fill="#380009"/>
<path d="M373.354 126.256C372.688 125.874 371.608 126.5 370.942 127.644C370.276 128.787 370.276 130.019 370.942 130.4C371.608 130.781 372.688 130.156 373.354 129.012C374.02 127.868 374.02 126.637 373.354 126.256Z" fill="#380009"/>
<path d="M368.682 132.834C368.682 131.759 367.915 131.329 366.976 131.866C366.038 132.404 365.271 133.724 365.271 134.799C365.271 135.874 366.038 136.304 366.976 135.767C367.915 135.219 368.682 133.909 368.682 132.834Z" fill="#380009"/>
<path d="M362.96 135.092C363.626 133.949 363.626 132.717 362.96 132.336C362.294 131.954 361.215 132.58 360.549 133.724C359.883 134.867 359.883 136.099 360.549 136.48C361.215 136.862 362.294 136.236 362.96 135.092Z" fill="#380009"/>
<path d="M359.55 131.71C360.498 131.172 361.255 129.853 361.255 128.778C361.255 127.702 360.488 127.272 359.55 127.81C358.601 128.347 357.844 129.667 357.844 130.742C357.844 131.818 358.611 132.258 359.55 131.71Z" fill="#380009"/>
<path d="M360.448 124.672C361.114 125.053 362.193 124.428 362.859 123.284C363.525 122.14 363.525 120.909 362.859 120.527C362.193 120.146 361.114 120.772 360.448 121.915C359.782 123.059 359.782 124.291 360.448 124.672Z" fill="#380009"/>
<path d="M361.759 127.976C361.759 129.296 362.153 130.283 362.819 130.869C363.727 131.671 366.724 133.362 366.724 133.362L373.778 121.329C373.778 121.329 371.285 119.921 370.599 119.344C369.691 118.582 368.298 118.562 366.734 119.452C363.989 121.036 361.759 124.848 361.759 127.976Z" fill="#380009"/>
<path d="M365.231 130.166C365.231 133.294 367.451 134.555 370.195 132.981C372.94 131.407 375.16 127.585 375.16 124.457C375.16 121.329 372.94 120.068 370.195 121.642C367.461 123.225 365.231 127.038 365.231 130.166Z" fill="#4F1F26"/>
<path d="M366.391 129.902C366.391 132.453 368.207 133.479 370.437 132.199C372.678 130.918 374.484 127.81 374.484 125.249C374.484 122.697 372.668 121.671 370.437 122.952C368.207 124.242 366.391 127.35 366.391 129.902Z" fill="#5C2930"/>
<path d="M372.415 75.7279C373.152 76.1482 388.338 84.8774 388.338 84.8774L371.8 88.7288L356.724 99.374L345.836 113.88L342.516 124.604L326.593 115.454L326.866 111.974L329.469 103.773L340.317 89.5304L355.261 78.4258L372.415 75.7279Z" fill="#FFC523"/>
<path d="M388.338 84.8774V86.5783L371.911 89.1785L357.178 99.7259L346.583 113.763L343.586 123.607L342.526 124.604L342.799 121.124L345.402 112.922L356.25 98.6799L371.194 87.5754L388.338 84.8774Z" fill="#E25000"/>
<path d="M326.866 111.974L342.799 121.124L342.526 124.604L326.593 115.464L326.866 111.974Z" fill="#FF9A0A"/>
<path d="M329.469 103.773L345.402 112.922L342.799 121.124L326.866 111.974L329.469 103.773Z" fill="#FFB828"/>
<path d="M355.261 78.4258L371.194 87.5754L388.338 84.8774L372.415 75.7279L355.261 78.4258Z" fill="#FFB828"/>
<path d="M340.317 89.5304L356.25 98.6799L345.402 112.922L329.469 103.773L340.317 89.5304Z" fill="#FFD02D"/>
<path d="M282.194 84.7112L283.475 83.9781L285.927 67.0964H284.949L270.902 75.1609L262.053 91.5636L244.172 101.827L243.385 100.488L237.986 103.616L235.928 104.77L239.823 109.032L282.194 84.7112Z" fill="#0BBCD3"/>
<path d="M271.972 150.948L273.223 135.552L267.724 133.558L267.128 132.101L315.867 104.125L313.112 111.759L311.346 132.277L302.325 144.721L271.972 150.948Z" fill="#0093A6"/>
<path d="M322.991 137.771L285.594 159.237L276.957 157.037L246.15 138.152L242.053 133.245V121.651L287.875 122.678L322.991 120.674V137.771Z" fill="#380009"/>
<path d="M322.991 127.36L285.594 147.653L281.649 148.719L247.744 128.475L242.053 121.652L274.706 107.331L287.875 111.085L322.991 120.674V127.36Z" fill="#2E0008"/>
<path d="M325.998 155.689L327.239 154.965L319.106 118.611L317.865 119.325L325.998 155.689Z" fill="#E26400"/>
<path d="M325.998 155.689L323.647 154.555L315.513 118.201L317.865 119.325L325.998 155.689Z" fill="#953E00"/>
<path d="M308.682 146.842L322.547 138.885L322.446 137.145L308.581 145.112L308.682 146.842Z" fill="#2E0008"/>
<path d="M309.086 146.48L321.881 139.139L321.911 138.67L309.116 146.021L309.086 146.48Z" fill="#E68D00"/>
<path d="M308.682 146.842L302.708 142.473L302.597 141.3L308.581 145.112L308.682 146.842Z" fill="#380009"/>
<path d="M308.581 145.112L322.446 137.145L316.462 133.343L302.597 141.3L308.581 145.112Z" fill="#67383F"/>
<path d="M313.324 164.31L327.188 156.353L327.088 154.613L313.213 162.57L313.324 164.31Z" fill="#2E0008"/>
<path d="M313.727 163.949L326.522 156.598L326.553 156.138L313.758 163.479L313.727 163.949Z" fill="#E68D00"/>
<path d="M313.324 164.31L307.34 159.941L307.239 158.768L313.213 162.57L313.324 164.31Z" fill="#380009"/>
<path d="M313.213 162.57L327.088 154.613L321.104 150.811L307.239 158.768L313.213 162.57Z" fill="#67383F"/>
<path d="M310.73 164.447L308.379 163.323L300.246 126.959L302.597 128.084L310.73 164.447Z" fill="#953E00"/>
<path d="M310.73 164.447L311.982 163.733L303.849 127.37L302.597 128.084L310.73 164.447Z" fill="#E26400"/>
<path d="M223.597 122.14L298.248 165.004V176.461L223.597 133.606V122.14Z" fill="#D75800"/>
<path d="M231.801 116.999L297.582 154.77L298.248 165.004L223.597 122.14L231.801 116.999Z" fill="#FFB828"/>
<path d="M326.371 120.781L286.805 143.489L281.518 144.222L234.424 116.168L233.98 111.476L233.93 104.574L288.712 100.713L326.371 112.776V120.781Z" fill="#D75800"/>
<path d="M281.518 144.222L286.805 143.489V135.483L281.518 136.216V144.222Z" fill="#E96F00"/>
<path d="M326.371 112.776L286.805 135.483L281.518 136.216L234.323 108.758L233.93 104.574L273.496 81.8569L288.712 86.1971L327.905 109.599L326.371 112.776Z" fill="#FFB828"/>
<path d="M276.604 133.352L315.867 104.125L318.016 97.8784L237.159 104.741L240.983 112.639L276.604 133.352Z" fill="#E26C00"/>
<path d="M285.927 18.7389V13.128L284.262 12.0723L269.046 16.4124L229.843 39.8141L226.685 46.2559L227.966 51.0164L232.002 44.4084L265.806 24.5453L283.314 18.3381L283.97 19.863L285.927 18.7389Z" fill="#0BBCD3"/>
<path d="M283.97 19.8631L284.949 67.0965L270.902 75.161L285.927 88.8462L282.153 102.346L277.542 126.324L237.986 103.616L233.465 87.6927L229.207 49.9314L232.002 44.4084L267.471 22.2482L283.314 18.3381L283.97 19.8631Z" fill="#67383F"/>
<path d="M229.631 52.9519L237.038 51.1631L243.92 97.81L237.401 101.554L233.597 88.1522L229.631 52.9519Z" fill="#7E7E7E"/>
<path d="M240.963 59.0613L245.918 91.4561L254.03 96.1677L262.053 91.5636L269.298 77.3701L269.056 75.2L240.963 59.0613Z" fill="#7E7E7E"/>
<path d="M237.956 95.9136L239.944 90.8599L251.589 84.3008L269.55 93.8902L272.537 109.452L276.826 123.802L274.505 120.674L237.956 95.9136Z" fill="#784A51"/>
<path d="M269.056 75.2001L229.49 52.4827L229.207 49.9314L268.773 72.6488L269.056 75.2001Z" fill="#274F5F"/>
<path d="M277.542 126.324L237.159 104.741L235.857 98.1716L237.956 95.9136L269.923 114.496L276.825 123.802L277.542 126.324Z" fill="#E26C00"/>
<path d="M323.526 42.5805L324.514 89.8139L310.458 97.8784L301.618 114.281L283.738 124.545L282.951 123.206L277.542 126.324L273.031 110.4L268.773 72.6488L277.935 70.7719L313.404 48.6117L322.87 41.0555L323.526 42.5805Z" fill="#380009"/>
<path d="M323.939 107.204L328.42 99.4913L328.702 82.8247L324.514 89.8139L310.458 97.8784L301.618 114.281L283.738 124.545L282.951 123.206L277.542 126.324L278.147 129.599L278.47 131.974L323.939 107.204Z" fill="#E27D00"/>
<path d="M308.006 53.7437V96.7054L299.651 112.825L285.504 120.948L279.419 71.7201L308.006 53.7437Z" fill="#4F2F32"/>
<path d="M269.056 75.2001L276.462 73.4113L283.344 120.058L276.825 123.802L273.031 110.4L269.056 75.2001Z" fill="#4F2F32"/>
<path d="M312.426 54.1151L323.576 45.1219L324.464 87.3798L312.426 94.2224V54.1151Z" fill="#4F2F32"/>
<path d="M328.702 82.8247L324.232 76.6469L324.514 89.8139L328.702 82.8247Z" fill="#E29200"/>
<path d="M325.493 40.7525V35.8454L323.818 34.7897L314.979 42.7857L275.776 66.1874L266.25 68.9733L267.522 73.7338L277.935 70.7719L311.74 50.9186L320.68 44.6039L323.526 42.5805L325.493 40.7525Z" fill="#E25D00"/>
<path d="M226.685 46.2559L266.25 68.9733L275.776 66.1874L314.979 42.7857L323.818 34.7897L325.493 35.8454L285.927 13.128L284.262 12.0723L269.046 16.4124L229.843 39.8141L226.685 46.2559Z" fill="#FFC523"/>
<path d="M314.979 42.7857L269.046 16.4124L284.262 12.0723L323.818 34.7897L314.979 42.7857Z" fill="#FFB828"/>
<path d="M227.966 51.0163L267.522 73.7337L266.25 68.9733L226.685 46.2559L227.966 51.0163Z" fill="#ECBB1F"/>
<path d="M310.872 40.606L270.771 62.3752L270.599 62.6293L271.881 63.4016L311.154 41.1338L310.872 40.606Z" fill="#E29200"/>
<path d="M309.863 40.0292L270.771 62.3751L271.609 62.8737L310.872 40.6059L309.863 40.0292Z" fill="#FFD02D"/>
<path d="M303.394 36.3342L263.294 58.1035L263.122 58.3576L264.404 59.1298L303.677 36.8621L303.394 36.3342Z" fill="#E29200"/>
<path d="M302.385 35.7574L263.294 58.1034L264.131 58.6019L303.394 36.3342L302.385 35.7574Z" fill="#FFD02D"/>
<path d="M295.927 32.0625L255.817 53.8317L255.645 54.0859L256.927 54.8581L296.2 32.5904L295.927 32.0625Z" fill="#E29200"/>
<path d="M294.908 31.4857L255.817 53.8317L256.654 54.3302L295.927 32.0625L294.908 31.4857Z" fill="#FFD02D"/>
<path d="M288.45 27.8005L248.339 49.56L248.168 49.8141L249.449 50.5864L288.723 28.3186L288.45 27.8005Z" fill="#E29200"/>
<path d="M287.431 27.214L248.339 49.5599L249.177 50.0585L288.45 27.8005L287.431 27.214Z" fill="#FFD02D"/>
<path d="M280.973 23.5288L240.862 45.2883L240.69 45.5424L241.972 46.3146L281.245 24.0469L280.973 23.5288Z" fill="#E29200"/>
<path d="M279.964 22.9423L240.862 45.2882L241.7 45.7867L280.973 23.5288L279.964 22.9423Z" fill="#FFD02D"/>
<path d="M273.496 19.2571L233.385 41.0165L233.213 41.2707L234.495 42.0429L273.768 19.7849L273.496 19.2571Z" fill="#E29200"/>
<path d="M272.486 18.6705L233.385 41.0165L234.222 41.5248L273.496 19.257L272.486 18.6705Z" fill="#FFD02D"/>
<path d="M229.843 39.8141L275.776 66.1874L266.25 68.9733L226.685 46.2559L229.843 39.8141Z" fill="#FFD02D"/>
<path d="M260.357 69.6478L259.217 66.2753L236.18 52.7759L234.333 54.7016L260.357 69.6478Z" fill="#332D28"/>
<path d="M255.746 65.0242L258.45 66.5589V67.8687L255.302 65.2685L255.746 65.0242Z" fill="#DC6E36"/>
<path d="M255.302 65.2686L258.006 66.813V68.1229L255.302 66.5491V65.2686Z" fill="#FF8936"/>
<path d="M258.006 66.813L258.45 66.5588V67.8687L258.006 68.1229V66.813Z" fill="#D75716"/>
<path d="M245.877 59.3057L248.581 60.8501V62.16L245.443 59.5598L245.877 59.3057Z" fill="#DC6E36"/>
<path d="M245.443 59.5598L248.148 61.0945V62.4044L245.443 60.8306V59.5598Z" fill="#FF8936"/>
<path d="M248.148 61.0945L248.581 60.8501V62.16L248.148 62.4044V61.0945Z" fill="#D75716"/>
<path d="M236.563 53.949L239.268 55.4934V56.8033L236.129 54.2031L236.563 53.949Z" fill="#DC6E36"/>
<path d="M236.129 54.2031L238.834 55.7378V57.0477L236.129 55.4739V54.2031Z" fill="#FF8936"/>
<path d="M238.834 55.7378L239.268 55.4934V56.8033L238.834 57.0477V55.7378Z" fill="#D75716"/>
<path d="M310.246 49.2765C310.327 49.9803 309.933 50.7232 309.277 51.124L306.119 53.0497C305.604 53.4016 304.979 53.1376 304.969 52.5609V52.4729L304.938 51.5052C304.878 50.948 305.191 50.3517 305.705 50.0389L307.996 48.6313L309.267 47.8493C309.651 47.6147 310.095 47.7907 310.135 48.211L310.246 49.2765Z" fill="#CDCDCD"/>
<path d="M307.118 51.3977L304.959 52.473L304.928 51.5052C304.868 50.9481 305.181 50.3518 305.695 50.039L307.986 48.6313L308.087 49.5404C308.157 50.2442 307.774 50.9969 307.118 51.3977Z" fill="#E3E7EB"/>
<path d="M261.094 68.6996C261.104 69.2568 261.508 69.8629 262.093 70.205L264.918 71.8668C265.383 72.1698 265.867 71.9841 265.816 71.5247L265.806 71.4562L265.726 70.6938C265.716 70.2539 265.393 69.7749 264.928 69.4914L262.89 68.2793L261.76 67.6048C261.417 67.3995 261.074 67.5266 261.074 67.8492L261.094 68.6996Z" fill="#CDCDCD"/>
<path d="M263.909 70.508L265.806 71.4562L265.726 70.6938C265.716 70.2539 265.393 69.7749 264.928 69.4914L262.89 68.2793L262.91 68.9929C262.92 69.5598 263.324 70.1659 263.909 70.508Z" fill="#E3E7EB"/>
<path d="M228.531 49.951C228.541 50.5081 228.945 51.1142 229.53 51.4563L232.356 53.1181C232.82 53.4211 233.304 53.2354 233.254 52.776L233.243 52.7075L233.163 51.9451C233.153 51.5052 232.83 51.0262 232.366 50.7525L230.327 49.5404L229.197 48.8659C228.854 48.6606 228.511 48.7877 228.511 49.1103L228.531 49.951Z" fill="#CDCDCD"/>
<path d="M231.346 51.7691L233.243 52.7173L233.163 51.9549C233.153 51.515 232.83 51.036 232.366 50.7623L230.327 49.5502L230.347 50.2638C230.358 50.8112 230.761 51.4172 231.346 51.7691Z" fill="#E3E7EB"/>
<path d="M338.218 46.2266L361.426 59.5501L385.18 52.6L361.971 39.2765L338.218 46.2266Z" fill="#F37C00"/>
<path d="M267.623 115.356L269.923 114.496L237.956 95.9136L235.857 98.1716L235.988 98.6408L237.613 98.1325L267.623 115.356Z" fill="#FFD02D"/>
<path d="M324.464 87.3798L314.565 79.1296V52.3849L323.576 45.1219L324.464 87.3798Z" fill="#664A4C"/>
<path d="M237.613 98.1326L267.623 115.356L271.054 130.127L240.983 112.639L237.613 98.1326Z" fill="#FF9A0A"/>
<path d="M285.019 81.4562L287.421 81.6908C289.378 82.0818 290.973 84.5061 290.973 87.1062V102.199C290.973 104.799 289.388 106.588 287.421 106.197L284.141 105.64C282.184 105.249 281.477 103.147 281.477 100.547V85.4542C281.477 82.8541 283.062 81.0652 285.019 81.4562Z" fill="#1F140B"/>
<path d="M285.019 81.8862L287.421 82.1208C289.378 82.5118 290.973 84.9361 290.973 87.5362V102.629C290.973 105.229 289.388 107.018 287.421 106.627L284.141 106.07C282.184 105.679 281.477 103.577 281.477 100.977V85.8745C281.477 83.2743 283.062 81.4854 285.019 81.8862Z" fill="#332D28"/>
<path d="M273.919 68.9733L282.809 77.4092C284.989 79.4815 286.22 82.3457 286.22 85.3368V104.262C286.19 104.291 286.149 104.31 286.109 104.33C285.958 104.379 285.816 104.437 285.655 104.467C285.191 104.535 284.949 104.477 284.737 104.271V86.1384C284.737 83.2059 283.556 80.4004 281.457 78.3378L273.253 70.2929L273.163 69.3154L273.919 68.9733Z" fill="#312821"/>
<path d="M266.937 59.3252L267.431 54.1346L280.166 54.379V54.3986C281.165 54.4377 282.133 54.6332 282.87 55.0046C284.434 55.8062 284.333 57.0672 282.628 57.8199C282.002 58.0936 281.245 58.2304 280.468 58.2891L266.937 59.3252Z" fill="#D99824"/>
<path d="M271.79 53.5482L262.073 53.4114V56.95C262.032 57.5365 262.456 58.1328 263.354 58.602C265.171 59.5306 268.248 59.5795 270.226 58.7095C271.215 58.2696 271.74 57.6831 271.79 57.0966V53.5482Z" fill="#B2CDCF"/>
<path d="M271.346 44.7604L262.981 44.6626L262.083 53.4113C262.042 53.9978 262.466 54.5941 263.364 55.0633C265.181 55.992 268.258 56.0409 270.236 55.1709C271.225 54.731 271.75 54.1445 271.8 53.558L271.346 44.7604Z" fill="#D76600"/>
<path d="M270.236 43.3429C268.672 42.5414 266.018 42.5023 264.323 43.2452C262.628 43.9979 262.517 45.2491 264.081 46.0604C265.645 46.862 268.299 46.9011 269.994 46.1582C271.699 45.4055 271.81 44.1445 270.236 43.3429Z" fill="#FFA71E"/>
<path d="M270.287 51.8962C268.602 51.0262 265.746 50.9871 263.909 51.7886C262.073 52.6 261.962 53.9489 263.657 54.8189C265.352 55.6889 268.198 55.728 270.034 54.9167C271.861 54.1151 271.982 52.7564 270.287 51.8962Z" fill="#FF9C00"/>
<path d="M265.695 48.602C265.261 49.775 265.08 51.6519 265.534 52.7271C265.998 53.8122 268.026 53.5091 268.46 52.3361C268.894 51.1631 268.773 50.557 268.309 49.4818C267.845 48.4065 266.129 47.4388 265.695 48.602Z" fill="#FF9C00"/>
<path d="M267.33 49.6088C266.967 50.8013 266.987 52.4826 267.37 53.3526C267.754 54.2226 268.369 53.9685 268.733 52.7661C269.096 51.5736 269.076 49.8922 268.692 49.0223C268.309 48.1523 267.703 48.4064 267.33 49.6088Z" fill="#FFA71E"/>
<path d="M294.767 133.313L289.308 136.422V139.051L295.645 133.812L294.767 133.313Z" fill="#DC6E36"/>
<path d="M295.645 133.812L290.196 136.92V139.56L295.645 136.392V133.812Z" fill="#FF8936"/>
<path d="M290.196 136.92L289.308 136.422V139.051L290.196 139.56V136.92Z" fill="#D75716"/>
<path d="M155.635 190.087L155.615 190.117L156.13 190.41C156.624 190.742 157.149 191.035 157.684 191.299L224.969 229.98L234.969 214.857L240.791 206.021L256.644 182.023L259.833 175.473L267.34 159.999L271.235 151.964L203.597 113.176L203.577 113.225C198.43 109.765 191.357 109.481 183.365 113.059C182.194 113.587 180.983 114.193 179.773 114.887C175.635 117.262 171.67 120.43 168.027 124.144C159.752 132.59 153.133 143.851 149.813 155.151C148.743 158.817 148.007 162.463 147.684 166.04C147.533 167.477 147.462 168.914 147.462 170.312C147.462 179.716 150.56 186.48 155.635 190.087Z" fill="#392D2D"/>
<path d="M147.684 166.04L234.959 214.867L240.781 206.03L256.634 182.032L259.823 175.483L267.33 160.009L183.375 113.069C182.204 113.597 180.994 114.203 179.783 114.897C175.645 117.272 171.68 120.439 168.037 124.154C159.763 132.6 153.143 143.861 149.823 155.161C148.733 158.816 148.007 162.463 147.684 166.04Z" fill="#463738"/>
<path d="M149.813 155.161L240.791 206.03L256.644 182.033L259.833 175.483L168.027 124.144C159.753 132.59 153.133 143.861 149.813 155.161Z" fill="#564445"/>
<path d="M148.017 176.803L221.881 219.207L210.57 221.71L157.684 191.309C157.149 191.045 156.634 190.742 156.13 190.42L155.615 190.126L155.635 190.087C151.821 187.379 149.117 182.873 148.017 176.803Z" fill="#1E1616"/>
<path d="M139.127 183.645L213.778 226.509L201.084 229.315L139.985 194.242L139.127 183.645Z" fill="#312C2C"/>
<path d="M190.59 218.914L197.552 222.863L197.341 218.679L190.378 214.73L190.59 218.914Z" fill="#F1F1F1"/>
<path d="M190.59 218.914L192.608 217.897L197.441 220.635L197.341 218.68L190.378 214.73L190.59 218.914Z" fill="#B9B9B9"/>
<path d="M190.378 214.73L190.59 218.914L197.552 222.863L197.573 223.372L190.156 219.168L189.924 214.476L190.378 214.73Z" fill="#423D3D"/>
<path d="M194.899 219.207L197.098 220.459L197.028 219.071L194.828 217.819L194.899 219.207Z" fill="white"/>
<path d="M197.552 222.863L197.573 223.372L190.156 219.168L190.59 218.914L197.552 222.863Z" fill="#716D6D"/>
<path d="M142.77 191.554L149.732 195.503L149.52 191.319L142.568 187.37L142.77 191.554Z" fill="#F1F1F1"/>
<path d="M142.77 191.554L144.788 190.537L149.621 193.274L149.52 191.319L142.568 187.37L142.77 191.554Z" fill="#B9B9B9"/>
<path d="M142.568 187.37L142.77 191.554L149.732 195.503L149.753 196.011L142.336 191.808L142.104 187.106L142.568 187.37Z" fill="#423D3D"/>
<path d="M147.089 191.847L149.278 193.098L149.208 191.7L147.018 190.459L147.089 191.847Z" fill="white"/>
<path d="M149.732 195.503L149.753 196.011L142.336 191.808L142.77 191.553L149.732 195.503Z" fill="#716D6D"/>
<path d="M147.321 178.494L213.112 216.265L213.778 226.509L139.127 183.645L147.321 178.494Z" fill="#423D3D"/>
<path d="M270.713 203.102C283.168 181.364 282.902 158.17 270.121 151.298C257.339 144.426 236.88 156.477 224.426 178.216C211.971 199.954 212.237 223.147 225.019 230.02C237.801 236.892 258.259 224.84 270.713 203.102Z" fill="#E68D00"/>
<path d="M216.765 208.357C216.765 211.309 217.078 213.987 217.694 216.363C218.006 217.673 218.42 218.875 218.905 219.989C218.925 220.009 218.925 220.038 218.925 220.058C222.154 227.506 228.773 231.055 237.017 229.725C237.552 229.657 238.107 229.53 238.672 229.413C241.518 228.758 244.505 227.575 247.593 225.786C251.316 223.655 254.858 220.85 258.147 217.594C259.56 216.197 260.922 214.691 262.234 213.147C262.254 213.147 262.254 213.147 262.254 213.127C263.132 212.091 263.96 211.026 264.787 209.941C264.787 209.941 264.787 209.941 264.807 209.921C272.981 198.895 278.349 185.141 278.349 173C278.349 169.569 277.915 166.5 277.108 163.812C275.312 157.819 271.609 153.802 266.704 152.179C264.928 151.573 262.961 151.28 260.842 151.358C260.741 151.358 260.62 151.387 260.519 151.387C260.357 151.387 260.186 151.387 260.014 151.397C260.105 151.407 260.166 151.407 260.246 151.407C258.299 151.515 256.25 151.876 254.081 152.58C251.992 153.254 249.802 154.252 247.542 155.532C230.549 165.297 216.765 188.944 216.765 208.357Z" fill="#6A3B42"/>
<path d="M216.765 208.357C216.765 211.309 217.078 213.987 217.694 216.363C218.006 217.673 218.42 218.875 218.905 219.989C218.925 219.892 218.905 219.794 218.854 219.677C222.012 227.34 228.652 231.035 237.017 229.735C237.552 229.667 238.107 229.54 238.672 229.422C241.518 228.767 244.505 227.585 247.593 225.796C251.316 223.665 254.858 220.859 258.147 217.604C259.56 216.226 260.922 214.73 262.234 213.157C262.254 213.157 262.254 213.157 262.254 213.137C263.132 212.101 263.96 211.035 264.787 209.95C264.787 209.95 264.787 209.95 264.807 209.931C273.001 198.934 278.369 185.151 278.369 173.039C278.369 169.608 277.935 166.51 277.108 163.831C275.312 157.839 271.609 153.821 266.704 152.199C264.908 151.593 262.961 151.329 260.872 151.397C260.872 151.397 260.852 151.397 260.852 151.378C260.751 151.378 260.63 151.407 260.529 151.407C260.367 151.407 260.196 151.407 260.024 151.417C260.115 151.427 260.176 151.427 260.256 151.427C258.309 151.534 256.261 151.896 254.091 152.6C252.002 153.274 249.813 154.271 247.552 155.552C230.549 165.297 216.765 188.944 216.765 208.357Z" fill="#8E4000"/>
<path d="M216.765 208.357C216.765 211.309 217.078 213.987 217.694 216.363C220.711 218.054 225.423 220.615 225.786 220.889C230.6 224.3 228.582 219.442 236.412 214.945C250.923 206.627 262.688 186.441 262.688 169.853C262.688 162.766 268.571 161.466 264.969 158.396C264.091 157.643 255.191 153.127 254.081 152.59C251.992 153.264 249.802 154.261 247.542 155.542C230.549 165.297 216.765 188.943 216.765 208.357Z" fill="#7D545A"/>
<path d="M264.044 199.638C274.175 181.957 273.959 163.091 263.561 157.5C253.163 151.909 236.521 161.71 226.39 179.391C216.259 197.073 216.475 215.939 226.873 221.53C237.27 227.121 253.913 217.32 264.044 199.638Z" fill="#805E63"/>
<path d="M221.871 202.912C221.871 217.634 232.325 223.557 245.231 216.158C258.117 208.758 268.571 190.82 268.571 176.099C268.571 161.397 258.117 155.473 245.231 162.873C244.142 163.499 243.042 164.203 242.002 164.975C231.821 172.424 223.748 186.158 222.144 198.601C221.972 200.058 221.871 201.514 221.871 202.912Z" fill="#6A3B42"/>
<path d="M222.144 198.611L232.527 204.584L252.537 171.026L242.012 164.985C231.821 172.423 223.748 186.158 222.144 198.611Z" fill="#6A3B42"/>
<path d="M228.894 195.982C228.894 204.76 235.13 208.298 242.82 203.88C250.509 199.462 256.745 188.768 256.745 179.989C256.745 171.211 250.509 167.673 242.82 172.091C235.13 176.51 228.894 187.204 228.894 195.982Z" fill="#805E63"/>
<path d="M291.931 144.564L241.457 183.645L208.117 205.424L200.247 218.924L203.355 220.547L204.212 231.143L291.497 184.672L305.17 148.963L297.723 145.298L291.931 144.564Z" fill="#FFC523"/>
<path d="M227.623 126.959V124.457C227.623 124.457 233.819 122.101 237.33 122.15C240.842 122.199 285.705 149.384 285.705 149.384L287.865 147.712L295.07 151.231L248.723 182.023C248.723 182.023 224.273 197.487 219.52 197.976C241.457 183.645 241.457 183.645 241.457 183.645L276.008 156.832C276.008 156.832 274.535 154.506 271.508 152.16C269.157 150.84 269.157 150.84 269.157 150.84L227.623 126.959Z" fill="#ECC781"/>
<path d="M299.378 148.22L211.225 207.047L203.355 220.547L204.212 231.143L209.036 232.863L294.313 186.109L306.492 175.004L305.17 148.963L299.378 148.22Z" fill="#E26600"/>
<path d="M200.247 218.924L203.355 220.546L204.212 231.143L201.084 229.315L200.247 218.924Z" fill="#FF9A0A"/>
<path d="M281.518 136.217V144.222L234.424 116.168L234.323 108.758L281.518 136.217Z" fill="#FF9A0A"/>
<path d="M278.955 132.062L271.054 130.127L276.604 133.352L280.599 133.812L278.955 132.062Z" fill="#FFB828"/>
<path d="M639 16.9695L626.496 10L609.496 12.4891L605 22.0306L617.504 29L634.504 26.4694L639 16.9695Z" fill="#F2F2F2"/>
</svg>
