<svg width="27" height="38" viewBox="0 0 27 38" fill="none" xmlns="http://www.w3.org/2000/svg">
<path d="M6.76948 26.543L5.42938 33.1802H13.4814V26.543H6.76948Z" fill="#FFA466"/>
<path d="M13.4814 26.543V33.1802H21.5334L20.1934 26.543H13.4814Z" fill="#FF6800"/>
<path d="M13.4814 26.5429H20.1934L18.8475 19.9057H13.4814V26.5429Z" fill="#AAAAAB"/>
<path d="M8.11544 19.9057L6.76959 26.5429H13.4816V19.9057H8.11544Z" fill="#E2E3E4"/>
<path d="M13.4813 13.2743H9.46102L8.11517 19.9057H13.4813V13.2743Z" fill="#FFA466"/>
<path d="M13.4814 19.9057H18.8475L17.5074 13.2743H13.4814V19.9057Z" fill="#FF6800"/>
<path d="M13.4814 6.6373H10.8012L9.46112 13.2745H13.4814V6.6373Z" fill="#E2E3E4"/>
<path d="M13.4814 13.2745H17.5074L16.1616 6.6373H13.4814V13.2745Z" fill="#AAAAAB"/>
<path d="M11.8078 1.67368L10.8013 6.6372H13.4815V0C12.5555 0 11.9976 0.701679 11.8078 1.67368Z" fill="#FFA466"/>
<path d="M16.1616 6.6372L15.1551 1.67368C14.9883 0.764945 14.4074 0 13.4814 0V6.6372H16.1616Z" fill="#FF6800"/>
<path d="M0.0057373 35.5903C0.0057373 36.9189 1.08126 38.0001 2.4156 38.0001H13.4872V35.5903H0.0057373Z" fill="#D15400"/>
<path d="M13.4814 33.1802H2.40987C1.08128 33.1802 0 34.2558 0 35.5901H13.4757V33.1802H13.4814Z" fill="#FF6800"/>
<path d="M13.4813 37.9943H24.5528C25.8814 37.9943 26.9627 36.9188 26.9627 35.5844H13.4813V37.9943Z" fill="#AF4700"/>
<path d="M24.5528 33.1803H13.4813V35.5902H26.957C26.957 34.2558 25.8814 33.1803 24.5528 33.1803Z" fill="#D15400"/>
<path d="M13.28 2.61115C13.28 2.9965 12.9695 3.30708 12.5841 3.30708C12.1988 3.30708 11.8882 2.9965 11.8882 2.61115C11.8882 2.2258 12.1988 1.91522 12.5841 1.91522C12.9637 1.91522 13.28 2.2258 13.28 2.61115Z" fill="white"/>
</svg>
