<svg width="41" height="41" viewBox="0 0 41 41" fill="none" xmlns="http://www.w3.org/2000/svg">
<path d="M24.9463 24.9463L18.9825 30.91L26.598 38.5314C29.8895 41.8229 35.2339 41.8229 38.5313 38.5314L24.9463 24.9463Z" fill="#959595"/>
<path d="M38.5314 38.5314C41.8229 35.2339 41.8229 29.8954 38.5314 26.598L30.91 18.9825L24.9463 24.9463L38.5314 38.5314Z" fill="#707070"/>
<path d="M29.1166 29.1168C29.8127 28.4207 29.8127 27.2999 29.1166 26.6038L23.7605 21.2477L22.504 22.5041L29.1166 29.1168Z" fill="#AAAAAB"/>
<path d="M21.2477 23.7666L26.6038 29.1227C27.2999 29.8188 28.4207 29.8188 29.1168 29.1227L22.5041 22.5042L21.2477 23.7666Z" fill="#E2E3E4"/>
<path d="M0 12.0042L1.25056 13.2547C3.99942 16.0036 8.16991 16.4578 11.4025 14.641L10.7536 13.9921C9.85699 13.0955 9.85699 11.6502 10.7536 10.7536C11.6502 9.85699 13.0955 9.85699 13.9921 10.7536L14.641 11.4025C16.4578 8.16992 15.9977 3.99942 13.2547 1.25055L12.0042 0L0 12.0042ZM10.7477 10.7477C9.2612 12.2342 7.05503 12.5764 5.23818 11.7682L11.7682 5.23819C12.5764 7.05503 12.2342 9.2612 10.7477 10.7477Z" fill="#818181"/>
<path d="M16.038 16.0431L14.7825 17.2986L21.2476 23.7637L22.5031 22.5082L16.038 16.0431Z" fill="#FF6800"/>
<path d="M17.2937 14.7881L16.0382 16.0436L22.5034 22.5088L23.7589 21.2533L17.2937 14.7881Z" fill="#AF4700"/>
<path d="M10.7479 10.7535C9.85128 11.6502 9.85128 13.0954 10.7479 13.992L11.3968 14.6409C11.4204 14.6291 11.444 14.6173 11.4676 14.6055L14.4701 17.608L16.0333 16.0448L10.7479 10.7535C10.7538 10.7535 10.7538 10.7535 10.7479 10.7535Z" fill="#E2E3E4"/>
<path d="M10.7537 10.7536L16.045 16.0449L17.6082 14.4817L14.6057 11.4792C14.6175 11.4556 14.6293 11.432 14.6411 11.4084L13.9922 10.7595C13.0956 9.85702 11.6445 9.85701 10.7537 10.7536Z" fill="#AAAAAB"/>
<path d="M23.9846 29.9485C24.5273 30.4971 24.5273 31.376 23.9846 31.9246C23.4419 32.4673 22.5571 32.4673 22.0085 31.9246C21.4599 31.3819 21.4599 30.4971 22.0085 29.9485C22.5512 29.4058 23.436 29.4058 23.9846 29.9485Z" fill="white"/>
</svg>
