<svg width="36" height="41" viewBox="0 0 36 41" fill="none" xmlns="http://www.w3.org/2000/svg">
<path d="M19.3851 0H16.6093V40.5485H19.3851V0Z" fill="#838383"/>
<path d="M1.13983 20.2685C1.13983 29.5649 8.70347 37.1285 17.9999 37.1285V35.9886C9.33045 35.9886 2.27979 28.9379 2.27979 20.2685C2.27979 11.5991 9.33045 4.54842 17.9999 4.54842V3.40846C8.70347 3.40846 1.13983 10.9721 1.13983 20.2685Z" fill="white"/>
<path d="M1.13996 20.2684C1.13996 10.972 8.7036 3.40836 18 3.40836V2.2684C8.07662 2.2684 0 10.345 0 20.2684C0 30.1918 8.07662 38.2684 18 38.2684V37.1285C8.7036 37.1285 1.13996 29.5648 1.13996 20.2684Z" fill="#00B3FF"/>
<path d="M17.9999 2.26836V3.40832C27.2963 3.40832 34.8599 10.972 34.8599 20.2684C34.8599 29.5648 27.2963 37.1284 17.9999 37.1284V38.2684C27.9233 38.2684 35.9999 30.1917 35.9999 20.2684C35.9999 10.345 27.9233 2.26836 17.9999 2.26836Z" fill="#00B3FF"/>
<path d="M26.7035 7.18731C24.207 5.52296 21.2146 4.54829 17.9999 4.54829V15.8909L26.7035 7.18731Z" fill="#00B3FF"/>
<path d="M14.9677 27.6724L17.4813 30.1861H8.07657V20.7814L10.5902 23.295L17.9943 15.8909V4.54829C9.32485 4.54829 2.27417 11.599 2.27417 20.2684C2.27417 28.9378 9.32485 35.9885 17.9943 35.9885V24.6458L14.9677 27.6724Z" fill="#66D1FF"/>
<path d="M33.72 20.2686C33.72 17.0482 32.7453 14.0558 31.081 11.565L17.9999 24.6461V35.9887C26.6693 35.9887 33.72 28.938 33.72 20.2686Z" fill="#00B3FF"/>
<path d="M10.596 23.3008L8.0824 20.7872V30.1919H17.4871L14.9678 27.6726L18.0001 24.646V15.8968L10.596 23.3008Z" fill="white"/>
<path d="M17.9999 3.40846V4.54842C21.2203 4.54842 24.2127 5.5231 26.7035 7.18744L17.9999 15.8911V24.6403L31.081 11.5592C32.7453 14.0557 33.72 17.0481 33.72 20.2628C33.72 28.9322 26.6693 35.9829 17.9999 35.9829V37.1229C27.2963 37.1229 34.8599 29.5592 34.8599 20.2628C34.8599 10.9721 27.2963 3.40846 17.9999 3.40846Z" fill="#E2E3E4"/>
</svg>
