<svg width="54" height="31" viewBox="0 0 54 31" fill="none" xmlns="http://www.w3.org/2000/svg">
<path d="M37.843 15.9471V18.5757H33.9632V6.6949H24.5793V12.2319L9.48828 11.8917L15.618 18.5757H17.0448V24.0469H43.6764V22.7902H51.4414V15.9471H37.843Z" fill="#1E1E1E"/>
<path d="M17.0447 28.5138C14.5808 28.5138 12.5778 26.5108 12.5778 24.0468C12.5778 21.5829 14.5808 19.5799 17.0447 19.5799C19.5087 19.5799 21.5117 21.5829 21.5117 24.0468C21.5117 26.5108 19.5087 28.5138 17.0447 28.5138Z" fill="#E2E3E4"/>
<path d="M17.0447 21.3524C18.5318 21.3524 19.7391 22.5597 19.7391 24.0468C19.7391 25.534 18.5263 26.7413 17.0447 26.7413C15.5575 26.7413 14.3502 25.534 14.3502 24.0468C14.3502 22.5597 15.563 21.3524 17.0447 21.3524ZM17.0447 17.8129C13.6039 17.8129 10.8107 20.6061 10.8107 24.0468C10.8107 27.4876 13.6039 30.2808 17.0447 30.2808C20.4854 30.2808 23.2786 27.4876 23.2786 24.0468C23.2786 20.6061 20.4909 17.8129 17.0447 17.8129Z" fill="#757575"/>
<path d="M48.0905 24.7608C48.4858 22.3256 46.832 20.0311 44.3968 19.6358C41.9616 19.2406 39.6671 20.8943 39.2719 23.3296C38.8767 25.7648 40.5304 28.0593 42.9656 28.4545C45.4008 28.8497 47.6953 27.196 48.0905 24.7608Z" fill="#E2E3E4"/>
<path d="M43.6764 21.3524C45.1635 21.3524 46.3708 22.5597 46.3708 24.0468C46.3708 25.534 45.1635 26.7413 43.6764 26.7413C42.1892 26.7413 40.9819 25.534 40.9819 24.0468C40.9819 22.5597 42.1892 21.3524 43.6764 21.3524ZM43.6764 17.8129C40.2356 17.8129 37.4424 20.6061 37.4424 24.0468C37.4424 27.4876 40.2301 30.2808 43.6764 30.2808C47.1171 30.2808 49.9103 27.4876 49.9103 24.0468C49.9103 20.6061 47.1171 17.8129 43.6764 17.8129Z" fill="#757575"/>
<path d="M33.9632 22.2359H24.6396V25.287H33.9632V22.2359Z" fill="#959595"/>
<path d="M49.7786 13.6039H37.8429V15.9471H46.8866L51.4413 22.7902H53.1041V13.6039H49.7786Z" fill="#959595"/>
<path d="M51.4358 11.5076H37.8429V13.6039H51.4358V11.5076Z" fill="#FF6800"/>
<path d="M45.4762 5.75641H37.8429V11.5075H48.4396L45.4762 5.75641Z" fill="#AF4700"/>
<path d="M41.4647 6.6949H38.5013V10.7448H41.4647V6.6949Z" fill="#66D1FF"/>
<path d="M47.1007 10.7448H42.1947V6.6949H45.1581L47.1007 10.7448Z" fill="#66D1FF"/>
<path d="M46.5957 4.22545H37.8429V5.7565H46.5957V4.22545Z" fill="#3C3C3B"/>
<path d="M5.28463 4.22545H35.571V7.30403L25.0676 18.5757H23.2787L0.620117 7.60036L5.28463 4.22545Z" fill="#FF6800"/>
<path d="M35.571 2.35963H46.7384V-6.10352e-05H33.9631L31.5486 2.35963H5.29559H4.94439L0 7.30401L1.65179 8.08875L5.51509 4.22544H12.4405L6.31081 10.3552L7.95162 11.1509L14.877 4.22544H22.3403L12.9783 13.5874L14.6191 14.3776L24.7768 4.22544H33.1455L20.255 17.1105L21.8958 17.9062L35.5765 4.23092L35.571 4.22544V2.35963Z" fill="#AF4700"/>
<path d="M33.9905 13.8727L33.1125 14.158L32.0918 11.0356L32.8107 10.2618L33.9905 13.8727Z" fill="#E2E3E4"/>
<path d="M36.7563 17.6976C36.7563 18.85 35.8234 19.7829 34.671 19.7829C33.5186 19.7829 32.5857 18.85 32.5857 17.6976C32.5857 16.5452 33.5186 15.6123 34.671 15.6123C35.8234 15.6123 36.7563 16.5452 36.7563 17.6976Z" fill="#3C3C3B"/>
<path d="M33.9269 12.7166L32.4611 13.1953L34.098 18.2084L35.5639 17.7298L33.9269 12.7166Z" fill="#FF6800"/>
<path d="M35.7136 17.6976C35.7136 18.2738 35.2472 18.7403 34.6709 18.7403C34.0947 18.7403 33.6283 18.2738 33.6283 17.6976C33.6283 17.1214 34.0947 16.655 34.6709 16.655C35.2472 16.655 35.7136 17.1214 35.7136 17.6976Z" fill="#FFA466"/>
<path d="M41.0916 11.4965V13.3623H39.0008V11.4965H38.496V19.4097H38.699H38.9954H41.0861H41.591V18.9048V16.6329V16.1281V13.8616V13.3568V11.491H41.0916V11.4965ZM41.0916 18.9048H39.0008V16.6329H41.0916V18.9048ZM41.0916 16.1281H39.0008V13.8616H41.0916V16.1281Z" fill="#E2E3E4"/>
</svg>
