<svg width="34" height="35" viewBox="0 0 34 35" fill="none" xmlns="http://www.w3.org/2000/svg">
<path d="M6.34981 0H4.94751V34.0226H6.34981V0Z" fill="#959595"/>
<path d="M4.94747 0H3.54517V34.0226H4.94747V0Z" fill="#BFBFBF"/>
<path d="M7.98963 32.5242H1.91113V34.0283H7.98963V32.5242Z" fill="#959595"/>
<path d="M30.5394 0H29.1371V34.0226H30.5394V0Z" fill="#959595"/>
<path d="M29.1373 0H27.735V34.0226H29.1373V0Z" fill="#BFBFBF"/>
<path d="M32.1736 32.5242H26.0951V34.0283H32.1736V32.5242Z" fill="#959595"/>
<path d="M19.3041 3.12685L9.95737 12.4679H16.1489L25.49 3.12685H19.3041Z" fill="#FF6800"/>
<path d="M34.0001 4.41047C34.0001 3.69801 33.4233 3.12126 32.7109 3.12126H31.6705L22.3237 12.468H28.5492L33.9944 7.0228V4.41047H34.0001Z" fill="#FF6800"/>
<path d="M6.89832 3.12692L0.00558472 10.0197V11.1788C0.00558472 11.8913 0.582334 12.468 1.29479 12.468H3.78273L13.1295 3.12126H6.89832V3.12692Z" fill="#FF6800"/>
<path d="M1.28921 3.12685C0.57675 3.12685 0 3.7036 0 4.41605V10.0252L6.89273 3.13249H1.28921V3.12685Z" fill="#3C3C3B"/>
<path d="M13.1238 3.12685L3.7771 12.4679H9.95739L19.3041 3.12685H13.1238Z" fill="#3C3C3B"/>
<path d="M25.4902 3.12685L16.149 12.4679H22.3237L31.6704 3.12685H25.4902Z" fill="#3C3C3B"/>
<path d="M33.9999 11.1787V7.02272L28.5547 12.4679H32.7107C33.4231 12.4679 33.9999 11.8912 33.9999 11.1787Z" fill="#3C3C3B"/>
<path d="M5.64887 4.68747C5.64887 5.07762 5.33222 5.38863 4.94772 5.38863C4.55757 5.38863 4.24658 5.07197 4.24658 4.68747C4.24658 4.29732 4.56322 3.98633 4.94772 3.98633C5.33788 3.98633 5.64887 4.30297 5.64887 4.68747Z" fill="#E2E3E4"/>
<path d="M5.64887 10.7207C5.64887 11.1109 5.33222 11.4219 4.94772 11.4219C4.55757 11.4219 4.24658 11.1052 4.24658 10.7207C4.24658 10.3306 4.56322 10.0196 4.94772 10.0196C5.33788 10.0196 5.64887 10.3362 5.64887 10.7207Z" fill="#E2E3E4"/>
<path d="M29.957 4.68747C29.957 5.07762 29.6403 5.38863 29.2558 5.38863C28.8657 5.38863 28.5547 5.07197 28.5547 4.68747C28.5547 4.29732 28.8713 3.98633 29.2558 3.98633C29.646 3.98633 29.957 4.30297 29.957 4.68747Z" fill="#E2E3E4"/>
<path d="M29.957 10.7207C29.957 11.1109 29.6403 11.4219 29.2558 11.4219C28.8657 11.4219 28.5547 11.1052 28.5547 10.7207C28.5547 10.3306 28.8713 10.0196 29.2558 10.0196C29.646 10.0196 29.957 10.3362 29.957 10.7207Z" fill="#E2E3E4"/>
<path d="M19.3041 16.3639L9.95737 25.7106H16.1489L25.49 16.3639H19.3041Z" fill="#FF6800"/>
<path d="M34.0001 17.6531C34.0001 16.9406 33.4233 16.3639 32.7109 16.3639H31.6705L22.3237 25.7106H28.5492L33.9944 20.2654V17.6531H34.0001Z" fill="#FF6800"/>
<path d="M6.89832 16.3639L0.00558472 23.2566V24.4214C0.00558472 25.1339 0.582334 25.7106 1.29479 25.7106H3.78273L13.1295 16.3639H6.89832Z" fill="#FF6800"/>
<path d="M1.28921 16.3639C0.57675 16.3639 0 16.9406 0 17.6531V23.2623L6.89273 16.3695H1.28921V16.3639Z" fill="#3C3C3B"/>
<path d="M13.1238 16.3639L3.7771 25.7106H9.95739L19.3041 16.3639H13.1238Z" fill="#3C3C3B"/>
<path d="M25.4902 16.3639L16.149 25.7106H22.3237L31.6704 16.3639H25.4902Z" fill="#3C3C3B"/>
<path d="M33.9999 24.4214V20.2597L28.5547 25.7049H32.7107C33.4231 25.7106 33.9999 25.1338 33.9999 24.4214Z" fill="#3C3C3B"/>
<path d="M4.94772 18.6312C5.33496 18.6312 5.64887 18.3173 5.64887 17.9301C5.64887 17.5428 5.33496 17.2289 4.94772 17.2289C4.56049 17.2289 4.24658 17.5428 4.24658 17.9301C4.24658 18.3173 4.56049 18.6312 4.94772 18.6312Z" fill="#E2E3E4"/>
<path d="M4.94772 24.6645C5.33496 24.6645 5.64887 24.3505 5.64887 23.9633C5.64887 23.5761 5.33496 23.2622 4.94772 23.2622C4.56049 23.2622 4.24658 23.5761 4.24658 23.9633C4.24658 24.3505 4.56049 24.6645 4.94772 24.6645Z" fill="#E2E3E4"/>
<path d="M29.957 17.9301C29.957 18.3202 29.6403 18.6312 29.2558 18.6312C28.8657 18.6312 28.5547 18.3146 28.5547 17.9301C28.5547 17.5399 28.8713 17.2289 29.2558 17.2289C29.646 17.2289 29.957 17.5399 29.957 17.9301Z" fill="#E2E3E4"/>
<path d="M29.957 23.9634C29.957 24.3535 29.6403 24.6645 29.2558 24.6645C28.8657 24.6645 28.5547 24.3479 28.5547 23.9634C28.5547 23.5732 28.8713 23.2622 29.2558 23.2622C29.646 23.2566 29.957 23.5732 29.957 23.9634Z" fill="#E2E3E4"/>
</svg>
