<svg width="47" height="31" viewBox="0 0 47 31" fill="none" xmlns="http://www.w3.org/2000/svg">
<path d="M7.96011 3.31107C10.8427 1.1443 14.2266 -1.52588e-05 17.7484 -1.52588e-05C19.9667 -1.52588e-05 22.1411 0.45365 24.1965 1.35421L24.5475 1.50995V7.90189H7.72824V3.49389L7.96011 3.31107Z" fill="#FF6800"/>
<path d="M13.6315 3.16889C14.2894 2.99284 14.96 2.85065 15.6368 2.75585C16.4263 2.64074 17.2347 2.57303 18.0556 2.57303V22.8052H0.00814629L0.00187302 22.1687C0.00187302 22.1416 0.00187302 22.1145 0.00187302 22.0874C0.00187302 12.9735 5.8109 5.30857 13.6315 3.16889Z" fill="#D15400"/>
<path d="M18.0619 2.57301C23.9085 2.57301 29.423 5.66065 32.8069 10.827C33.9098 12.2625 35.207 13.4948 36.6608 14.4834C36.9303 14.6662 37.206 14.8355 37.4817 14.998C37.3188 15.0725 37.1496 15.147 36.9804 15.2215C37.4504 15.5126 37.9267 15.7903 38.4217 16.034C37.9455 15.797 38.0708 15.5465 37.958 15.2621C40.2139 16.5012 42.7143 17.158 45.271 17.158H46.0605V22.7916H18.0556L18.0619 2.57301Z" fill="#FFA466"/>
<path d="M0.00810242 22.1823L0.020628 21.5932H18.6321V22.5818L18.3814 22.7578C15.6618 24.6943 13.2554 27.071 11.2188 29.8201L11.0496 30.0435H0.196089L0.171019 29.468C0.158485 29.2649 -0.0420303 24.4438 0.00810242 22.1823Z" fill="#AF4700"/>
<path d="M0.00802612 22.189C0.00802612 22.0603 0.0518837 19.0607 0.509338 17.4831L0.634674 17.0632H14.5651L15.411 14.2939H20.6874L21.5334 17.0632H24.9047C28.8213 17.0632 32.5937 16.183 36.128 14.4428L36.4037 14.3074L36.6607 14.4834C39.2362 16.2372 42.219 17.1648 45.2771 17.1648H46.0667V22.7984H0.00175476L0.00802612 22.189Z" fill="#FF6800"/>
<path d="M16.9588 18.4784C16.9588 19.1352 17.4538 19.6633 18.0554 19.6633C18.6633 19.6633 19.152 19.1352 19.152 18.4784C19.152 17.8216 18.657 17.2934 18.0554 17.2934C17.4538 17.2866 16.9588 17.8216 16.9588 18.4784Z" fill="#AF4700"/>
<path d="M26.3711 8.19989C26.0077 8.59262 26.0077 9.23588 26.3711 9.6286L29.26 12.7501C29.6234 13.1428 30.2187 13.1428 30.5822 12.7501C30.9457 12.3574 30.9457 11.7141 30.5822 11.3214L27.6934 8.19989C27.3299 7.80717 26.7409 7.80717 26.3711 8.19989Z" fill="white"/>
</svg>
