<svg width="49" height="34" viewBox="0 0 49 34" fill="none" xmlns="http://www.w3.org/2000/svg">
<path d="M27.7778 12.118C26.7907 13.1051 25.1882 13.1051 24.2011 12.118C23.214 11.1309 23.214 9.52832 24.2011 8.54123L31.999 0.743244C32.9861 -0.243842 34.5887 -0.243842 35.5758 0.743244C36.5629 1.73033 36.5629 3.33291 35.5758 4.31999L27.7778 12.118Z" fill="#00B3FF"/>
<path d="M31.6032 6.27928L28.8859 13.2656L30.3471 13.8339L33.0644 6.84758L31.6032 6.27928Z" fill="#0086BF"/>
<path d="M33.5084 2.12375L31.8512 6.38852L32.8362 6.77128L34.4934 2.50651L33.5084 2.12375Z" fill="#E2E3E4"/>
<path d="M47.3686 17.8488C47.3686 19.2482 46.2363 16.0895 44.837 16.0895C43.4377 16.0895 42.3054 14.9573 42.3054 13.5579V2.53159C42.3054 1.13225 43.4377 0 44.837 0C46.2363 0 47.3686 1.13225 47.3686 2.53159V17.8488Z" fill="#00B3FF"/>
<path d="M39.228 23.4462H0V28.5094H39.228V23.4462Z" fill="#828282"/>
<path d="M7.87354 32.4284C5.71356 32.4284 3.96002 30.6691 3.96002 28.5149C3.96002 26.3549 5.71937 24.5956 7.87354 24.5956C10.0335 24.5956 11.7929 26.3549 11.7929 28.5149C11.7929 30.6691 10.0335 32.4284 7.87354 32.4284Z" fill="#00B3FF"/>
<path d="M7.87348 25.7456C9.40056 25.7456 10.6431 26.9881 10.6431 28.5152C10.6431 30.0423 9.40056 31.279 7.87348 31.279C6.3464 31.279 5.10382 30.0365 5.10382 28.5152C5.10962 26.9823 6.3522 25.7456 7.87348 25.7456ZM7.87348 23.4462C5.0748 23.4462 2.8103 25.7165 2.8103 28.5094C2.8103 31.3081 5.0806 33.5726 7.87348 33.5726C10.6722 33.5726 12.9366 31.3023 12.9366 28.5094C12.9424 25.7107 10.6722 23.4462 7.87348 23.4462Z" fill="#3C3C3B"/>
<path d="M31.3487 32.4284C29.1887 32.4284 27.4352 30.6691 27.4352 28.5149C27.4352 26.3549 29.1887 24.5956 31.3487 24.5956C33.5087 24.5956 35.268 26.3549 35.268 28.5149C35.268 30.6691 33.5087 32.4284 31.3487 32.4284Z" fill="#00B3FF"/>
<path d="M31.3488 25.7456C32.8758 25.7456 34.1184 26.9881 34.1184 28.5152C34.1184 30.0423 32.8758 31.279 31.3488 31.279C29.8217 31.279 28.5849 30.0365 28.5849 28.5152C28.5849 26.9823 29.8275 25.7456 31.3488 25.7456ZM31.3488 23.4462C28.5501 23.4462 26.2856 25.7165 26.2856 28.5094C26.2856 31.3081 28.5559 33.5726 31.3488 33.5726C34.1474 33.5726 36.4119 31.3023 36.4119 28.5094C36.4177 25.7107 34.1474 23.4462 31.3488 23.4462Z" fill="#3C3C3B"/>
<path d="M25.4784 21.4954H13.7553V23.4638H25.4784V21.4954Z" fill="#3C3C3B"/>
<path d="M30.6578 19.5327H8.57025V21.5011H30.6578V19.5327Z" fill="#828282"/>
<path d="M17.1231 11.6244H7.05487V19.5327H17.1231V11.6244Z" fill="#00B3FF"/>
<path d="M7.05487 9.77792V11.6244H14.789L12.9425 9.77792H7.05487Z" fill="#0086BF"/>
<path d="M7.05471 16.1649V12.7856C7.05471 12.1469 6.53794 11.6243 5.89343 11.6243V16.1649H7.05471Z" fill="#0086BF"/>
<path d="M7.05471 16.1652H5.89343V19.5329H7.05471V16.1652Z" fill="#3C3C3B"/>
<path d="M4.73218 12.7856V16.165V19.5327H5.89346V16.165V11.6244C5.25475 11.6244 4.73218 12.1469 4.73218 12.7856Z" fill="#E2E3E4"/>
<path d="M12.4896 12.7161H8.12323V15.5147H12.4896V12.7161Z" fill="#1E1E1E"/>
<path d="M6.47982 12.8613C6.47982 13.1806 6.21853 13.4419 5.89918 13.4419C5.57402 13.4419 5.31274 13.1806 5.31274 12.8613C5.31274 12.5361 5.57402 12.2748 5.89918 12.2748C6.21853 12.2748 6.47982 12.5361 6.47982 12.8613Z" fill="#1E1E1E"/>
<path d="M18.0345 18.6096V11.3749C18.0345 8.14653 20.659 5.52203 23.8874 5.52203C27.1157 5.52203 29.7402 8.14653 29.7402 11.3749V18.6096H18.0345Z" fill="#66D1FF"/>
<path d="M28.8229 12.8612H18.9578V17.6922H28.8229V12.8612Z" fill="#3C3C3B"/>
<path d="M8.91284 28.5094C8.91284 29.0784 8.44833 29.5429 7.8793 29.5429C7.31027 29.5429 6.84576 29.0784 6.84576 28.5094C6.84576 27.9403 7.31027 27.4758 7.8793 27.4758C8.44833 27.4758 8.91284 27.9403 8.91284 28.5094Z" fill="#3C3C3B"/>
<path d="M32.3881 28.5094C32.3881 29.0784 31.9235 29.5429 31.3545 29.5429C30.7855 29.5429 30.321 29.0784 30.321 28.5094C30.321 27.9403 30.7855 27.4758 31.3545 27.4758C31.9235 27.4758 32.3881 27.9403 32.3881 28.5094Z" fill="#3C3C3B"/>
<path d="M45.6557 4.61029H44.088V10.707H45.6557V4.61029Z" fill="#0086BF"/>
<path d="M45.4003 10.7013H44.3435V15.2767H45.4003V10.7013Z" fill="#E2E3E4"/>
<path d="M33.8165 5.06318C32.4172 5.06318 31.2849 3.93093 31.2849 2.53159C31.2849 1.13225 32.4172 0 33.8165 0H44.8428C46.2422 0 47.3744 1.13225 47.3744 2.53159C47.3744 3.93093 46.2422 5.06318 44.8428 5.06318H33.8165Z" fill="#66D1FF"/>
<path d="M42.311 13.6101V26.988C46.0039 26.988 49 23.992 49 20.2991C49 16.6004 46.0039 13.6101 42.311 13.6101Z" fill="#66D1FF"/>
<path d="M45.8879 2.53746C45.8879 3.19358 45.3596 3.72197 44.7034 3.72197C44.0473 3.72197 43.5131 3.18778 43.5131 2.53746C43.5131 1.88134 44.0415 1.35295 44.7034 1.35295C45.3538 1.34715 45.8879 1.87553 45.8879 2.53746Z" fill="#1E1E1E"/>
<path d="M35.1287 2.53746C35.1287 3.19358 34.5945 3.72197 33.9442 3.72197C33.2881 3.72197 32.7597 3.18778 32.7597 2.53746C32.7597 1.88134 33.2939 1.35295 33.9442 1.35295C34.6003 1.34715 35.1287 1.87553 35.1287 2.53746Z" fill="#1E1E1E"/>
<path d="M45.8879 17.396C45.8879 18.0521 45.3596 18.5805 44.7034 18.5805C44.0473 18.5805 43.5131 18.0463 43.5131 17.396C43.5131 16.7399 44.0415 16.2115 44.7034 16.2115C45.3538 16.2057 45.8879 16.7399 45.8879 17.396Z" fill="#1E1E1E"/>
<path d="M23.8874 6.44509C26.6048 6.44509 28.8228 8.65734 28.8228 11.3747V17.6921H18.9578V11.3747C18.9578 8.65734 21.17 6.44509 23.8874 6.44509ZM23.8874 4.61029C20.1481 4.61029 17.1171 7.64121 17.1171 11.3805V19.5327H30.6576V11.3805C30.6576 7.6354 27.6267 4.61029 23.8874 4.61029Z" fill="#959595"/>
</svg>
